<?xml version="1.0" encoding="UTF-8"?>
<svg version="1.1" xmlns="http://www.w3.org/2000/svg" width="1024" height="1024">
<path d="M0 0 C1.4448175 0.00090637 1.4448175 0.00090637 2.91882324 0.00183105 C98.91170327 0.16440316 194.70387102 26.76283332 333.38671875 125.04296875 C334.8974549 126.41386816 336.41990601 127.77203746 337.95703125 129.11328125 C343.83854453 134.27338234 349.39674412 139.7277657 354.9375 145.25 C355.69804688 146.00595459 356.45859375 146.76190918 357.2421875 147.54077148 C361.95063628 152.26205963 366.40670286 157.13062863 370.75 162.1875 C371.77161194 163.34406304 372.79500364 164.49905682 373.8203125 165.65234375 C397.78959823 192.81157657 418.00283576 223.10359278 434.75 255.1875 C435.12318359 255.90067383 435.49636719 256.61384766 435.88085938 257.34863281 C438.25733457 261.92100675 440.52957439 266.53755516 442.75 271.1875 C443.12833984 271.97463379 443.50667969 272.76176758 443.89648438 273.57275391 C461.96250424 311.41393803 473.94428637 351.78324659 481 393.0625 C481.11901672 393.74213806 481.23803345 394.42177612 481.36065674 395.12200928 C485.8676171 421.1472409 487.28565199 447.18859669 487.125 473.5625 C487.11994843 474.94968545 487.11525307 476.33687224 487.11090088 477.72406006 C487.03773219 498.01254895 486.60736281 518.06786627 483.75 538.1875 C483.54928616 539.6440388 483.34860391 541.10058196 483.14794922 542.55712891 C474.30322077 605.79712706 454.6244147 666.69084522 422.75 722.1875 C422.26031738 723.04037598 421.77063477 723.89325195 421.26611328 724.77197266 C407.93687643 747.81357794 392.71680567 770.18548758 375.2421875 790.296875 C372.94469174 792.96168199 370.74903788 795.68163717 368.5625 798.4375 C356.65641835 813.04854117 343.06650115 827.33119549 328.68359375 839.53125 C326.44663065 841.44735577 324.29196422 843.44262856 322.125 845.4375 C316.47409199 850.53456711 310.51845587 855.19296151 304.49511719 859.83642578 C302.86600239 861.09769065 301.24891494 862.37444821 299.6328125 863.65234375 C262.85302727 892.52400722 221.24413608 914.36565446 177.75 931.1875 C176.85522949 931.53393555 175.96045898 931.88037109 175.03857422 932.23730469 C159.61863197 938.09682202 143.85544037 940.90413865 128 934.4375 C117.06679302 929.07963546 108.99035575 920.66411503 104.75 909.1875 C102.31225283 900.54051035 102.49262218 891.83092812 102.5546875 882.93188477 C102.55853253 881.30608809 102.56145697 879.68028902 102.5635376 878.05448914 C102.56983127 874.56895553 102.58232632 871.08352032 102.59967041 867.59802437 C102.62689424 862.06820055 102.63854262 856.53840853 102.64794922 851.00852966 C102.6719691 838.26105864 102.71594692 825.51367154 102.76040649 812.76625824 C102.80092815 801.09951908 102.83705083 789.43280967 102.85683632 777.76601452 C102.86670276 772.28851049 102.88627396 766.8111595 102.91369629 761.33371651 C102.92880854 757.89883226 102.93528495 754.46396775 102.9396286 751.02905464 C102.9433157 749.45832075 102.95039909 747.88758975 102.96149445 746.31689072 C103.06295485 731.46245837 102.370421 716.28627558 98.5 701.875 C98.17684814 700.6377417 98.17684814 700.6377417 97.84716797 699.37548828 C94.30972462 686.36609153 89.15077389 673.97819668 79.0625 664.6875 C74.14617499 659.99263107 72.11603335 654.22034773 71.3125 647.5625 C72.29950691 639.94844669 74.61378966 635.70898465 80.421875 630.6328125 C85.53750549 627.45700162 91.55324659 626.80679825 97.4375 626.109375 C98.94073482 625.91983529 100.44390609 625.72979112 101.94702148 625.53930664 C102.72987518 625.44167023 103.51272888 625.34403381 104.31930542 625.24343872 C147.97937182 619.74817619 196.94421144 612.41609989 231.75 583.1875 C232.61882813 582.45789063 233.48765625 581.72828125 234.3828125 580.9765625 C268.87748447 550.91239886 280.447007 506.5084234 283.52294922 462.37109375 C284.64440187 443.21251753 285.58983827 422.88332688 280.75 404.1875 C280.50056641 403.19411621 280.50056641 403.19411621 280.24609375 402.18066406 C274.6826462 380.57594273 262.55535956 362.53839263 247.91015625 345.9609375 C240.98592142 338.08096961 236.09864639 332.23843166 236.75 321.1875 C237.5368845 317.73745263 238.57723514 314.37859385 239.625 311 C248.10118284 282.30456368 246.5934888 254.23394278 239.29077148 225.42553711 C238.71048082 223.02394591 238.2203184 220.61280461 237.75 218.1875 C202.2061492 225.26831956 170.07759278 243.79920777 140.21411133 263.71166992 C132.22110918 268.99686713 126.08607858 270.3631882 116.51855469 268.58789062 C112.87304302 267.7553943 109.24957237 266.85679922 105.625 265.9375 C102.93992639 265.28138136 100.25181597 264.63848846 97.5625 264 C96.89459442 263.84126404 96.22668884 263.68252808 95.5385437 263.51898193 C59.46918629 255.03981179 21.5395101 252.76128116 -15.375 254.9375 C-16.47066788 255.00185242 -16.47066788 255.00185242 -17.58847046 255.06750488 C-45.66852056 256.76622097 -73.39552372 261.41012326 -100.59692383 268.58569336 C-109.5378721 270.61380024 -115.54345342 268.89278094 -123.25 264.1875 C-126.04831483 262.42160691 -128.83295221 260.63862086 -131.60473633 258.83154297 C-153.80918579 244.37022889 -177.53663744 231.47839406 -202.625 222.8125 C-203.33825439 222.56129395 -204.05150879 222.31008789 -204.78637695 222.05126953 C-210.23008796 220.24781609 -215.53846865 219.57083419 -221.25 219.1875 C-229.93485477 252.31401747 -232.61041886 284.72126649 -221.4375 317.625 C-219.65132536 323.47968354 -219.65750039 328.88348835 -222.34765625 334.46484375 C-225.0044921 338.67581757 -228.19650105 342.28265 -231.5625 345.9375 C-255.53216627 372.07527679 -263.48413433 404.16481259 -263.4375 438.875 C-263.43659363 440.11311935 -263.43659363 440.11311935 -263.43566895 441.37625122 C-263.3581763 480.37158817 -258.81258783 525.1371536 -231.18359375 555.2890625 C-204.38812737 581.59733858 -165.62242081 587.1075117 -129.875 590.75 C-127.86157458 590.96263155 -125.84822899 591.17602033 -123.83496094 591.39013672 C-114.80435891 592.34370559 -105.77044511 593.24818315 -96.7265625 594.06640625 C-95.65282883 594.1648156 -95.65282883 594.1648156 -94.55740356 594.26521301 C-91.31090607 594.56208388 -88.06432226 594.84785877 -84.81494141 595.11157227 C-68.7141815 596.53384815 -68.7141815 596.53384815 -62.8125 601.0546875 C-62.296875 601.71726562 -61.78125 602.37984375 -61.25 603.0625 C-60.71375 603.71992187 -60.1775 604.37734375 -59.625 605.0546875 C-55.88938753 610.84913184 -55.3442458 616.43724761 -56.25 623.1875 C-57.79529323 627.12620087 -60.36094846 630.14300662 -63.08203125 633.33984375 C-73.76665908 646.00544794 -80.11665833 661.57692843 -83.41796875 677.73828125 C-83.62010986 678.71071777 -83.82225098 679.6831543 -84.03051758 680.68505859 C-84.4163603 682.59319742 -84.77835243 684.50637291 -85.11206055 686.42431641 C-86.58751882 693.84257409 -89.63833772 699.04425038 -95.97900391 703.3659668 C-103.72760331 707.53345675 -112.52995941 710.04292551 -120.9375 712.5 C-121.76717285 712.74250488 -122.5968457 712.98500977 -123.45166016 713.23486328 C-135.36205038 716.52972197 -147.10566574 717.57856704 -159.4375 717.5625 C-160.11431824 717.56228851 -160.79113647 717.56207703 -161.48846436 717.56185913 C-191.1003674 717.46981541 -217.19616081 706.18071564 -238.375 685.5 C-246.7347712 677.06476722 -253.42992403 667.35487726 -259.5 657.1875 C-272.35472562 636.00436059 -298.51920151 628.87356815 -321.25 623.1875 C-328.23088736 621.5213533 -335.02944605 619.99146686 -342.25 620.1875 C-341.25033203 620.78884766 -341.25033203 620.78884766 -340.23046875 621.40234375 C-330.22527218 627.57338108 -321.49240119 634.93437667 -312.83203125 642.8515625 C-310.73962568 644.74454061 -308.62135732 646.59187488 -306.484375 648.43359375 C-302.03522277 652.31898889 -297.85168964 656.43819938 -293.6875 660.625 C-292.97142578 661.33720703 -292.25535156 662.04941406 -291.51757812 662.78320312 C-287.47527 666.83286759 -283.61336428 670.98019468 -279.87817383 675.31420898 C-277.44824205 678.10996045 -274.90872441 680.79869672 -272.375 683.5 C-267.88145931 688.33094204 -263.60118059 693.27707456 -259.48046875 698.43359375 C-257.88726805 700.40068042 -256.27866656 702.31927246 -254.61328125 704.22265625 C-250.33076446 709.14385538 -246.61721013 713.68117108 -244.2109375 719.78515625 C-237.76768332 735.8932917 -227.08164668 747.1092675 -211.25 754.1875 C-208.38515328 755.39006154 -205.49541676 756.47520704 -202.5625 757.5 C-201.91788818 757.73050049 -201.27327637 757.96100098 -200.60913086 758.19848633 C-185.88832947 762.95293327 -170.33988212 763.70407959 -155 763.5625 C-154.15780914 763.55984131 -153.31561829 763.55718262 -152.44790649 763.55444336 C-140.44100649 763.51015684 -128.74686627 762.8457733 -116.88671875 760.84375 C-109.61147385 759.67702372 -102.65159148 759.10812249 -96.07421875 762.84375 C-91.99688176 765.84718453 -88.85502098 769.37243707 -87.25 774.1875 C-86.90184372 777.85474089 -86.83226557 781.54184265 -86.70703125 785.22265625 C-86.64489189 787.0328701 -86.64489189 787.0328701 -86.58149719 788.87965393 C-85.98233814 807.87305392 -85.98842198 826.88208888 -85.95483398 845.88305664 C-85.94364415 851.53772352 -85.90900285 857.19201051 -85.86966228 862.8465414 C-85.84344967 867.25715323 -85.83513963 871.66767294 -85.83155251 876.07835579 C-85.82672454 878.16374439 -85.81522094 880.24912995 -85.79651451 882.33444023 C-85.66023455 898.48494354 -86.60147949 913.56165091 -98.0625 926.18359375 C-108.58588352 936.0492658 -120.15271909 938.35112525 -134.11328125 938.55078125 C-144.02087328 938.03439615 -153.67558781 934.1847746 -162.875 930.75 C-164.04160156 930.31461914 -165.20820313 929.87923828 -166.41015625 929.43066406 C-204.42975326 914.97380438 -240.3932518 895.09540217 -273.25 871.1875 C-274.34248047 870.39448486 -274.34248047 870.39448486 -275.45703125 869.58544922 C-283.65121341 863.61021264 -291.56226302 857.38878072 -299.23828125 850.76171875 C-302.02800279 848.37724859 -304.87377023 846.09107163 -307.75 843.8125 C-312.70236162 839.79277291 -317.15669086 835.39790618 -321.61621094 830.85083008 C-324.48239739 827.93269507 -327.36609378 825.13547183 -330.5 822.5 C-334.24745605 819.30570274 -337.44937061 815.74795187 -340.69921875 812.0546875 C-343.11049858 809.34430558 -345.57258605 806.69426275 -348.05761719 804.05200195 C-354.07818022 797.64147458 -359.79272939 791.08934225 -365.25 784.1875 C-366.21297793 783.01255857 -367.17656173 781.83811355 -368.140625 780.6640625 C-385.26046036 759.52675855 -400.43774312 736.16406043 -413.25 712.1875 C-413.74113281 711.27919434 -414.23226562 710.37088867 -414.73828125 709.43505859 C-450.43685161 643.24584223 -473.01341297 566.93878387 -473.48828125 491.32421875 C-473.49802979 490.02984894 -473.50777832 488.73547913 -473.51782227 487.40188599 C-473.54509886 483.22626678 -473.55625801 479.05069829 -473.5625 474.875 C-473.56379787 474.16289242 -473.56509575 473.45078484 -473.56643295 472.71709824 C-473.59961738 448.67656303 -472.70822148 425.01048816 -469.25 401.1875 C-469.15569702 400.52282715 -469.06139404 399.8581543 -468.9642334 399.17333984 C-462.09541883 350.92788202 -447.36054119 304.04882587 -426.25 260.1875 C-425.6012793 258.81851563 -425.6012793 258.81851563 -424.93945312 257.421875 C-409.5102289 224.93929769 -389.40960649 194.67491175 -366.25 167.1875 C-365.8178418 166.6704248 -365.38568359 166.15334961 -364.94042969 165.62060547 C-351.79398895 149.91250803 -337.86644141 134.22414298 -322.25390625 120.9140625 C-319.99766614 118.97008954 -317.81636107 116.95426482 -315.625 114.9375 C-309.42050834 109.3534575 -302.87058529 104.26057808 -296.25 99.1875 C-295.50427734 98.61193359 -294.75855469 98.03636719 -293.99023438 97.44335938 C-268.9882765 78.18426303 -242.36609636 62.44118702 -214.25 48.1875 C-213.48349121 47.79353027 -212.71698242 47.39956055 -211.92724609 46.99365234 C-163.67386533 22.32839548 -109.1320585 8.91698523 -55.5625 2.9375 C-54.82094666 2.85432526 -54.07939331 2.77115051 -53.31536865 2.68545532 C-35.5370208 0.71846077 -17.88430472 -0.02088655 0 0 Z " fill="#FEFEFE" transform="translate(505.25,42.8125)"/>
<path d="M0 0 C1.4448175 0.00090637 1.4448175 0.00090637 2.91882324 0.00183105 C98.91170327 0.16440316 194.70387102 26.76283332 333.38671875 125.04296875 C334.8974549 126.41386816 336.41990601 127.77203746 337.95703125 129.11328125 C343.83854453 134.27338234 349.39674412 139.7277657 354.9375 145.25 C355.69804688 146.00595459 356.45859375 146.76190918 357.2421875 147.54077148 C361.95063628 152.26205963 366.40670286 157.13062863 370.75 162.1875 C371.77161194 163.34406304 372.79500364 164.49905682 373.8203125 165.65234375 C397.78959823 192.81157657 418.00283576 223.10359278 434.75 255.1875 C435.12318359 255.90067383 435.49636719 256.61384766 435.88085938 257.34863281 C438.25733457 261.92100675 440.52957439 266.53755516 442.75 271.1875 C443.12833984 271.97463379 443.50667969 272.76176758 443.89648438 273.57275391 C461.96250424 311.41393803 473.94428637 351.78324659 481 393.0625 C481.11901672 393.74213806 481.23803345 394.42177612 481.36065674 395.12200928 C485.8676171 421.1472409 487.28565199 447.18859669 487.125 473.5625 C487.11994843 474.94968545 487.11525307 476.33687224 487.11090088 477.72406006 C487.03773219 498.01254895 486.60736281 518.06786627 483.75 538.1875 C483.54928616 539.6440388 483.34860391 541.10058196 483.14794922 542.55712891 C474.30322077 605.79712706 454.6244147 666.69084522 422.75 722.1875 C422.26031738 723.04037598 421.77063477 723.89325195 421.26611328 724.77197266 C407.93687643 747.81357794 392.71680567 770.18548758 375.2421875 790.296875 C372.94469174 792.96168199 370.74903788 795.68163717 368.5625 798.4375 C356.65641835 813.04854117 343.06650115 827.33119549 328.68359375 839.53125 C326.44663065 841.44735577 324.29196422 843.44262856 322.125 845.4375 C316.47409199 850.53456711 310.51845587 855.19296151 304.49511719 859.83642578 C302.86600239 861.09769065 301.24891494 862.37444821 299.6328125 863.65234375 C262.85302727 892.52400722 221.24413608 914.36565446 177.75 931.1875 C176.85522949 931.53393555 175.96045898 931.88037109 175.03857422 932.23730469 C159.61863197 938.09682202 143.85544037 940.90413865 128 934.4375 C117.06679302 929.07963546 108.99035575 920.66411503 104.75 909.1875 C102.31225283 900.54051035 102.49262218 891.83092812 102.5546875 882.93188477 C102.55853253 881.30608809 102.56145697 879.68028902 102.5635376 878.05448914 C102.56983127 874.56895553 102.58232632 871.08352032 102.59967041 867.59802437 C102.62689424 862.06820055 102.63854262 856.53840853 102.64794922 851.00852966 C102.6719691 838.26105864 102.71594692 825.51367154 102.76040649 812.76625824 C102.80092815 801.09951908 102.83705083 789.43280967 102.85683632 777.76601452 C102.86670276 772.28851049 102.88627396 766.8111595 102.91369629 761.33371651 C102.92880854 757.89883226 102.93528495 754.46396775 102.9396286 751.02905464 C102.9433157 749.45832075 102.95039909 747.88758975 102.96149445 746.31689072 C103.06295485 731.46245837 102.370421 716.28627558 98.5 701.875 C98.17684814 700.6377417 98.17684814 700.6377417 97.84716797 699.37548828 C94.30972462 686.36609153 89.15077389 673.97819668 79.0625 664.6875 C74.14617499 659.99263107 72.11603335 654.22034773 71.3125 647.5625 C72.29950691 639.94844669 74.61378966 635.70898465 80.421875 630.6328125 C85.53750549 627.45700162 91.55324659 626.80679825 97.4375 626.109375 C98.94073482 625.91983529 100.44390609 625.72979112 101.94702148 625.53930664 C102.72987518 625.44167023 103.51272888 625.34403381 104.31930542 625.24343872 C147.97937182 619.74817619 196.94421144 612.41609989 231.75 583.1875 C232.61882813 582.45789063 233.48765625 581.72828125 234.3828125 580.9765625 C268.87748447 550.91239886 280.447007 506.5084234 283.52294922 462.37109375 C284.64440187 443.21251753 285.58983827 422.88332688 280.75 404.1875 C280.50056641 403.19411621 280.50056641 403.19411621 280.24609375 402.18066406 C274.6826462 380.57594273 262.55535956 362.53839263 247.91015625 345.9609375 C240.98592142 338.08096961 236.09864639 332.23843166 236.75 321.1875 C237.5368845 317.73745263 238.57723514 314.37859385 239.625 311 C248.10118284 282.30456368 246.5934888 254.23394278 239.29077148 225.42553711 C238.71048082 223.02394591 238.2203184 220.61280461 237.75 218.1875 C202.2061492 225.26831956 170.07759278 243.79920777 140.21411133 263.71166992 C132.22110918 268.99686713 126.08607858 270.3631882 116.51855469 268.58789062 C112.87304302 267.7553943 109.24957237 266.85679922 105.625 265.9375 C102.93992639 265.28138136 100.25181597 264.63848846 97.5625 264 C96.89459442 263.84126404 96.22668884 263.68252808 95.5385437 263.51898193 C59.46918629 255.03981179 21.5395101 252.76128116 -15.375 254.9375 C-16.47066788 255.00185242 -16.47066788 255.00185242 -17.58847046 255.06750488 C-45.66852056 256.76622097 -73.39552372 261.41012326 -100.59692383 268.58569336 C-109.5378721 270.61380024 -115.54345342 268.89278094 -123.25 264.1875 C-126.04831483 262.42160691 -128.83295221 260.63862086 -131.60473633 258.83154297 C-153.80918579 244.37022889 -177.53663744 231.47839406 -202.625 222.8125 C-203.33825439 222.56129395 -204.05150879 222.31008789 -204.78637695 222.05126953 C-210.23008796 220.24781609 -215.53846865 219.57083419 -221.25 219.1875 C-229.93485477 252.31401747 -232.61041886 284.72126649 -221.4375 317.625 C-219.65132536 323.47968354 -219.65750039 328.88348835 -222.34765625 334.46484375 C-225.0044921 338.67581757 -228.19650105 342.28265 -231.5625 345.9375 C-255.53216627 372.07527679 -263.48413433 404.16481259 -263.4375 438.875 C-263.43659363 440.11311935 -263.43659363 440.11311935 -263.43566895 441.37625122 C-263.3581763 480.37158817 -258.81258783 525.1371536 -231.18359375 555.2890625 C-204.38812737 581.59733858 -165.62242081 587.1075117 -129.875 590.75 C-127.86157458 590.96263155 -125.84822899 591.17602033 -123.83496094 591.39013672 C-114.80435891 592.34370559 -105.77044511 593.24818315 -96.7265625 594.06640625 C-95.65282883 594.1648156 -95.65282883 594.1648156 -94.55740356 594.26521301 C-91.31090607 594.56208388 -88.06432226 594.84785877 -84.81494141 595.11157227 C-68.7141815 596.53384815 -68.7141815 596.53384815 -62.8125 601.0546875 C-62.296875 601.71726562 -61.78125 602.37984375 -61.25 603.0625 C-60.71375 603.71992187 -60.1775 604.37734375 -59.625 605.0546875 C-55.88938753 610.84913184 -55.3442458 616.43724761 -56.25 623.1875 C-57.79529323 627.12620087 -60.36094846 630.14300662 -63.08203125 633.33984375 C-73.76665908 646.00544794 -80.11665833 661.57692843 -83.41796875 677.73828125 C-83.62010986 678.71071777 -83.82225098 679.6831543 -84.03051758 680.68505859 C-84.4163603 682.59319742 -84.77835243 684.50637291 -85.11206055 686.42431641 C-86.58751882 693.84257409 -89.63833772 699.04425038 -95.97900391 703.3659668 C-103.72760331 707.53345675 -112.52995941 710.04292551 -120.9375 712.5 C-121.76717285 712.74250488 -122.5968457 712.98500977 -123.45166016 713.23486328 C-135.36205038 716.52972197 -147.10566574 717.57856704 -159.4375 717.5625 C-160.11431824 717.56228851 -160.79113647 717.56207703 -161.48846436 717.56185913 C-191.1003674 717.46981541 -217.19616081 706.18071564 -238.375 685.5 C-246.7347712 677.06476722 -253.42992403 667.35487726 -259.5 657.1875 C-272.35472562 636.00436059 -298.51920151 628.87356815 -321.25 623.1875 C-328.23088736 621.5213533 -335.02944605 619.99146686 -342.25 620.1875 C-341.25033203 620.78884766 -341.25033203 620.78884766 -340.23046875 621.40234375 C-330.22527218 627.57338108 -321.49240119 634.93437667 -312.83203125 642.8515625 C-310.73962568 644.74454061 -308.62135732 646.59187488 -306.484375 648.43359375 C-302.03522277 652.31898889 -297.85168964 656.43819938 -293.6875 660.625 C-292.97142578 661.33720703 -292.25535156 662.04941406 -291.51757812 662.78320312 C-287.47527 666.83286759 -283.61336428 670.98019468 -279.87817383 675.31420898 C-277.44824205 678.10996045 -274.90872441 680.79869672 -272.375 683.5 C-267.88145931 688.33094204 -263.60118059 693.27707456 -259.48046875 698.43359375 C-257.88726805 700.40068042 -256.27866656 702.31927246 -254.61328125 704.22265625 C-250.33076446 709.14385538 -246.61721013 713.68117108 -244.2109375 719.78515625 C-237.76768332 735.8932917 -227.08164668 747.1092675 -211.25 754.1875 C-208.38515328 755.39006154 -205.49541676 756.47520704 -202.5625 757.5 C-201.91788818 757.73050049 -201.27327637 757.96100098 -200.60913086 758.19848633 C-185.88832947 762.95293327 -170.33988212 763.70407959 -155 763.5625 C-154.15780914 763.55984131 -153.31561829 763.55718262 -152.44790649 763.55444336 C-140.44100649 763.51015684 -128.74686627 762.8457733 -116.88671875 760.84375 C-109.61147385 759.67702372 -102.65159148 759.10812249 -96.07421875 762.84375 C-91.99688176 765.84718453 -88.85502098 769.37243707 -87.25 774.1875 C-86.90184372 777.85474089 -86.83226557 781.54184265 -86.70703125 785.22265625 C-86.64489189 787.0328701 -86.64489189 787.0328701 -86.58149719 788.87965393 C-85.98233814 807.87305392 -85.98842198 826.88208888 -85.95483398 845.88305664 C-85.94364415 851.53772352 -85.90900285 857.19201051 -85.86966228 862.8465414 C-85.84344967 867.25715323 -85.83513963 871.66767294 -85.83155251 876.07835579 C-85.82672454 878.16374439 -85.81522094 880.24912995 -85.79651451 882.33444023 C-85.66023455 898.48494354 -86.60147949 913.56165091 -98.0625 926.18359375 C-108.58588352 936.0492658 -120.15271909 938.35112525 -134.11328125 938.55078125 C-144.02087328 938.03439615 -153.67558781 934.1847746 -162.875 930.75 C-164.04160156 930.31461914 -165.20820313 929.87923828 -166.41015625 929.43066406 C-204.42975326 914.97380438 -240.3932518 895.09540217 -273.25 871.1875 C-274.34248047 870.39448486 -274.34248047 870.39448486 -275.45703125 869.58544922 C-283.65121341 863.61021264 -291.56226302 857.38878072 -299.23828125 850.76171875 C-302.02800279 848.37724859 -304.87377023 846.09107163 -307.75 843.8125 C-312.70236162 839.79277291 -317.15669086 835.39790618 -321.61621094 830.85083008 C-324.48239739 827.93269507 -327.36609378 825.13547183 -330.5 822.5 C-334.24745605 819.30570274 -337.44937061 815.74795187 -340.69921875 812.0546875 C-343.11049858 809.34430558 -345.57258605 806.69426275 -348.05761719 804.05200195 C-354.07818022 797.64147458 -359.79272939 791.08934225 -365.25 784.1875 C-366.21297793 783.01255857 -367.17656173 781.83811355 -368.140625 780.6640625 C-385.26046036 759.52675855 -400.43774312 736.16406043 -413.25 712.1875 C-413.74113281 711.27919434 -414.23226562 710.37088867 -414.73828125 709.43505859 C-450.43685161 643.24584223 -473.01341297 566.93878387 -473.48828125 491.32421875 C-473.49802979 490.02984894 -473.50777832 488.73547913 -473.51782227 487.40188599 C-473.54509886 483.22626678 -473.55625801 479.05069829 -473.5625 474.875 C-473.56379787 474.16289242 -473.56509575 473.45078484 -473.56643295 472.71709824 C-473.59961738 448.67656303 -472.70822148 425.01048816 -469.25 401.1875 C-469.15569702 400.52282715 -469.06139404 399.8581543 -468.9642334 399.17333984 C-462.09541883 350.92788202 -447.36054119 304.04882587 -426.25 260.1875 C-425.6012793 258.81851563 -425.6012793 258.81851563 -424.93945312 257.421875 C-409.5102289 224.93929769 -389.40960649 194.67491175 -366.25 167.1875 C-365.8178418 166.6704248 -365.38568359 166.15334961 -364.94042969 165.62060547 C-351.79398895 149.91250803 -337.86644141 134.22414298 -322.25390625 120.9140625 C-319.99766614 118.97008954 -317.81636107 116.95426482 -315.625 114.9375 C-309.42050834 109.3534575 -302.87058529 104.26057808 -296.25 99.1875 C-295.50427734 98.61193359 -294.75855469 98.03636719 -293.99023438 97.44335938 C-268.9882765 78.18426303 -242.36609636 62.44118702 -214.25 48.1875 C-213.48349121 47.79353027 -212.71698242 47.39956055 -211.92724609 46.99365234 C-163.67386533 22.32839548 -109.1320585 8.91698523 -55.5625 2.9375 C-54.82094666 2.85432526 -54.07939331 2.77115051 -53.31536865 2.68545532 C-35.5370208 0.71846077 -17.88430472 -0.02088655 0 0 Z M-92.19580078 49.49902344 C-95.53959414 50.25278021 -98.89141991 50.96037459 -102.24609375 51.6640625 C-112.93224309 53.93113091 -123.44789142 56.22497058 -133.72827148 59.96386719 C-137.08496771 61.13015914 -140.43911773 62.10676734 -143.8671875 63.0390625 C-196.12320909 77.83570601 -246.87822615 108.38510135 -287.25 144.1875 C-288.62461834 145.37544178 -289.99955738 146.5630127 -291.375 147.75 C-304.32877366 159.16688526 -317.14321293 170.93423274 -328.25 184.1875 C-329.01957031 185.06792969 -329.78914063 185.94835937 -330.58203125 186.85546875 C-360.83154307 221.62821902 -385.43050144 262.29777867 -402.25 305.1875 C-402.62253906 306.13657227 -402.99507812 307.08564453 -403.37890625 308.06347656 C-408.27048385 320.61933292 -412.77632522 333.16700474 -416.25 346.1875 C-416.52054199 347.18652344 -416.79108398 348.18554688 -417.06982422 349.21484375 C-422.8017681 370.45399424 -427.12886495 391.32100275 -429.9375 413.125 C-430.04636536 413.96929565 -430.15523071 414.81359131 -430.26739502 415.68347168 C-430.58292493 418.15167274 -430.89242757 420.62054239 -431.19921875 423.08984375 C-431.29070694 423.8123381 -431.38219513 424.53483246 -431.47645569 425.27922058 C-432.77946614 435.96766457 -433.40757123 446.63353898 -433.453125 457.3984375 C-433.46009399 458.51742432 -433.46706299 459.63641113 -433.47424316 460.78930664 C-433.49153081 464.38040988 -433.49796302 467.97135688 -433.5 471.5625 C-433.50100708 472.79059387 -433.50201416 474.01868774 -433.50305176 475.28399658 C-433.49260655 494.11824298 -432.91120699 512.52529371 -430.25 531.1875 C-430.10014648 532.2796582 -429.95029297 533.37181641 -429.79589844 534.49707031 C-427.83957986 548.49866253 -425.15296693 562.32829109 -421.96264648 576.09912109 C-421.42900672 578.41174287 -420.91011014 580.72777521 -420.39868164 583.04541016 C-418.07625817 593.43262893 -415.09979149 603.48451788 -411.6875 613.5625 C-411.29691406 614.72454453 -411.29691406 614.72454453 -410.8984375 615.9100647 C-393.13565609 668.62378617 -367.25355846 717.60660982 -331.67236328 760.4609375 C-330.42922023 761.96995014 -329.21050954 763.49902349 -327.99609375 765.03125 C-318.46007032 777.04627762 -307.55844341 787.95032779 -296.75 798.8125 C-296.11634521 799.45082764 -295.48269043 800.08915527 -294.82983398 800.74682617 C-290.4672241 805.09455637 -285.92027249 809.17413692 -281.25 813.1875 C-280.28578125 814.033125 -279.3215625 814.87875 -278.328125 815.75 C-254.52756241 836.26319207 -228.00453314 854.44530684 -200.25 869.1875 C-199.21359375 869.73857422 -198.1771875 870.28964844 -197.109375 870.85742188 C-179.30162766 880.23157056 -161.11769086 888.20722449 -142.25 895.1875 C-141.31849121 895.56551758 -140.38698242 895.94353516 -139.42724609 896.33300781 C-135.34982848 897.57706901 -135.34982848 897.57706901 -127.25 897.1875 C-127.25 866.4975 -127.25 835.8075 -127.25 804.1875 C-141.81707305 804.30517292 -141.81707305 804.30517292 -156.38378906 804.45776367 C-169.28798861 804.54754987 -181.57078312 803.57853145 -194.25 801.1875 C-195.30074707 800.99921631 -196.35149414 800.81093262 -197.43408203 800.61694336 C-225.97780982 795.18168654 -252.91092531 781.44944127 -270.15234375 757.51171875 C-273.32394099 752.48559351 -275.90033661 747.22454727 -278.42578125 741.8515625 C-281.48959946 735.50759872 -285.69285244 730.31695535 -290.3125 725.0625 C-290.88178223 724.41015381 -291.45106445 723.75780762 -292.03759766 723.08569336 C-296.48685547 718.0071038 -301.02273896 713.01371996 -305.6171875 708.06640625 C-307.54198564 705.96169374 -309.4029454 703.83887439 -311.25390625 701.671875 C-316.11308989 696.10340306 -321.32959522 690.88497949 -326.54467773 685.65258789 C-328.29168475 683.89593023 -330.02767029 682.12885307 -331.76367188 680.36132812 C-341.60335928 670.42902004 -351.87999042 661.57182964 -364.0234375 654.55078125 C-378.29984823 645.80961047 -387.6682564 629.9167894 -392.25 614.1875 C-393.53666724 604.6612137 -391.82404658 597.0525742 -386.25 589.1875 C-383.7941167 586.72187114 -381.2655866 584.90808671 -378.25 583.1875 C-377.26 582.61 -376.27 582.0325 -375.25 581.4375 C-368.96842476 578.82017698 -362.96465962 577.82215059 -356.1875 577.875 C-355.424375 577.87918945 -354.66125 577.88337891 -353.875 577.88769531 C-312.91995313 578.65765019 -264.85884603 591.48810704 -235.25 621.1875 C-230.10654571 627.11172904 -225.93388902 633.63841117 -221.75 640.25 C-210.97082002 657.22813612 -197.44591952 669.98683543 -177.875 676.0625 C-161.33518036 679.64217413 -139.27215482 678.69248179 -124.25 670.1875 C-121.94728099 666.82016775 -121.3805205 662.79774711 -120.5 658.875 C-118.80020002 651.63157227 -116.32953866 644.93756582 -113.421875 638.1015625 C-112.12563151 635.40171501 -112.12563151 635.40171501 -112.25 633.1875 C-113.7191687 633.03716309 -113.7191687 633.03716309 -115.21801758 632.88378906 C-170.32938987 627.21411285 -228.05229341 620.9424565 -266.5 576.3125 C-285.81313805 552.3333078 -295.68925683 522.2803923 -300.5625 492.25 C-300.80154053 490.77865601 -300.80154053 490.77865601 -301.04541016 489.27758789 C-303.34416504 474.06956291 -303.4633085 458.82148016 -303.49023438 443.47485352 C-303.49991107 440.15550387 -303.53102203 436.83678271 -303.5625 433.51757812 C-303.75457839 394.75428584 -294.44061087 356.87006098 -268.3828125 327.05078125 C-267.54363281 326.06658203 -267.54363281 326.06658203 -266.6875 325.0625 C-266.19121094 324.52367187 -265.69492187 323.98484375 -265.18359375 323.4296875 C-262.76831347 317.62897252 -265.68380046 309.69405488 -266.76147461 303.72802734 C-272.97863617 268.01171505 -268.82950142 232.71450157 -257.125 198.625 C-256.78118286 197.61675171 -256.78118286 197.61675171 -256.43041992 196.58813477 C-254.1011333 190.14231534 -251.00211573 185.02224382 -245.25 181.1875 C-223.79431966 172.12843497 -197.63060681 180.86533116 -177.26147461 188.80712891 C-162.79076363 194.6870916 -148.68283767 201.59812852 -135 209.125 C-134.29351318 209.51244385 -133.58702637 209.8998877 -132.85913086 210.29907227 C-128.76191919 212.6044814 -124.88662758 215.10194574 -121.0390625 217.8046875 C-111.86571032 224.76725727 -111.86571032 224.76725727 -101.06640625 227.484375 C-97.64071507 226.83580507 -94.53414287 226.00961746 -91.2578125 224.85888672 C-87.80066748 223.70286181 -84.25867803 223.02092022 -80.6875 222.3125 C-79.50885376 222.06838379 -79.50885376 222.06838379 -78.30639648 221.81933594 C-68.69166816 219.91840668 -58.96733513 218.73848278 -49.25 217.5 C-48.40243134 217.39149719 -47.55486267 217.28299438 -46.68161011 217.17120361 C-44.20490714 216.85607128 -41.72764257 216.54593281 -39.25 216.23828125 C-38.15843346 216.10101875 -38.15843346 216.10101875 -37.04481506 215.96098328 C-27.05445646 214.74339054 -17.10342554 214.02909591 -7.0390625 213.94921875 C-6.00497757 213.9394249 -4.97089264 213.92963104 -3.9054718 213.91954041 C34.64650598 213.63036053 75.55987802 214.87259138 112.86328125 225.93359375 C116.87975287 227.06970925 119.69010533 227.58400949 123.75 226.1875 C126.75626094 224.54495211 126.75626094 224.54495211 129.8125 222.375 C160.32940518 202.02349539 201.30544334 177.56150274 239.3125 177.9375 C240.09818359 177.92976562 240.88386719 177.92203125 241.69335938 177.9140625 C248.68354628 177.93707546 255.74474305 178.82082894 262.0625 182 C262.67738281 182.29519531 263.29226563 182.59039062 263.92578125 182.89453125 C277.42484187 192.46238792 280.90570542 221.9043776 283.75 237.1875 C283.95882812 238.29351562 284.16765625 239.39953125 284.3828125 240.5390625 C287.67509326 262.43534251 286.5606866 284.51456387 282.44116211 306.17407227 C282.21178955 307.38635498 281.98241699 308.5986377 281.74609375 309.84765625 C281.53138428 310.90605713 281.3166748 311.96445801 281.09545898 313.05493164 C280.63675863 317.21435515 280.60000858 321.43832211 282.95703125 325.0234375 C283.75173828 325.78527344 283.75173828 325.78527344 284.5625 326.5625 C309.42682725 353.20285063 323.74195275 390.17375332 323.98828125 426.41796875 C323.99798447 427.59429871 324.00768768 428.77062866 324.01768494 429.98260498 C324.04258827 433.7801047 324.05520623 437.57742681 324.0625 441.375 C324.06511841 442.66383087 324.06773682 443.95266174 324.07043457 445.2805481 C324.07450912 463.93019909 323.56246339 481.87785822 319.75 500.1875 C319.57388184 501.08259277 319.39776367 501.97768555 319.21630859 502.89990234 C318.19942239 508.0361859 317.03521649 513.11198402 315.75 518.1875 C315.52828125 519.12078125 315.3065625 520.0540625 315.078125 521.015625 C305.86072219 557.66042154 286.26765021 593.15684664 255.75 616.1875 C255.22567383 616.58678711 254.70134766 616.98607422 254.16113281 617.39746094 C247.63504227 622.33539477 240.93300077 626.8366376 233.8125 630.875 C233.22960205 631.20693359 232.6467041 631.53886719 232.04614258 631.88085938 C219.73323934 638.67282099 206.95245123 643.84823508 193.625 648.25 C192.46428482 648.63694534 192.46428482 648.63694534 191.28012085 649.03170776 C176.29266165 653.9983761 161.30967904 657.46393774 145.75 660.1875 C143.89300839 660.52613528 142.03622053 660.86589078 140.1796875 661.20703125 C136.37460377 661.8986937 132.56583493 662.55797007 128.75 663.1875 C129.49040362 668.14019988 131.34362827 672.6015901 133.125 677.25 C143.15842607 704.18503156 143.21874325 731.48064838 143.25611091 759.85715175 C143.26561521 764.70043441 143.29182623 769.54362907 143.31611633 774.38685608 C143.35945837 783.51985024 143.38820216 792.65282702 143.41143972 801.78589207 C143.4386666 812.19982186 143.48256581 822.6136617 143.52772844 833.02752674 C143.62011104 854.4141358 143.69200187 875.80077181 143.75 897.1875 C145.01401138 897.20093948 146.27802277 897.21437897 147.58033752 897.22822571 C148.29134393 897.23578542 149.00235033 897.24334513 149.73490238 897.25113392 C152.35349563 897.16844247 154.46046683 896.53746604 156.90234375 895.60546875 C157.83054932 895.25637451 158.75875488 894.90728027 159.71508789 894.54760742 C160.69598389 894.16064697 161.67687988 893.77368652 162.6875 893.375 C163.73091553 892.97192627 164.77433105 892.56885254 165.84936523 892.15356445 C212.45657232 873.91808119 254.93136531 849.00620268 292.75 816.1875 C293.44996094 815.58808594 294.14992188 814.98867188 294.87109375 814.37109375 C307.80505526 803.21185461 320.78938683 791.4890087 331.84375 778.4296875 C333.3833048 776.61881772 334.94644289 774.84113477 336.53125 773.0703125 C358.04547812 748.89484098 376.32408663 721.60073258 391.75 693.1875 C392.20391113 692.36717285 392.65782227 691.5468457 393.12548828 690.70166016 C411.56780828 657.32517667 424.44757819 621.09043562 433.75 584.1875 C433.95238281 583.4042334 434.15476562 582.6209668 434.36328125 581.81396484 C443.54153686 545.96695522 446.86473883 509.2673038 447 472.375 C447.00553894 471.38910889 447.01107788 470.40321777 447.01678467 469.38745117 C447.07168121 456.01721628 446.41672512 442.86670838 445.00231934 429.57113647 C444.77939237 427.46516686 444.57436796 425.35731884 444.37207031 423.24926758 C436.80912908 346.0325044 405.35328454 269.60408287 356.75 209.1875 C356.028125 208.28515625 355.30625 207.3828125 354.5625 206.453125 C352.31579934 203.67684489 350.04113727 200.92722564 347.75 198.1875 C347.28303711 197.62885254 346.81607422 197.07020508 346.33496094 196.49462891 C340.71788898 189.79622486 335.04257897 183.2994472 328.765625 177.203125 C326.79483629 175.23233629 324.98866943 173.18820447 323.1875 171.0625 C320.27445377 167.66506733 317.11790323 164.78366373 313.70703125 161.89453125 C311.85019075 160.27489193 310.14602508 158.58626709 308.4375 156.8125 C304.76296859 153.07977465 300.75513992 149.83363074 296.67578125 146.5546875 C293.82542658 144.24852604 291.03915527 141.87955904 288.25 139.5 C247.15854147 105.26597763 198.70601721 80.70596164 148.1875 63.8125 C147.44862549 63.56506042 146.70975098 63.31762085 145.94848633 63.06268311 C130.15717733 57.80170239 114.29068006 53.23355286 97.9375 50.0625 C95.99641357 49.68194458 95.99641357 49.68194458 94.01611328 49.29370117 C84.26650538 47.40269139 74.51614585 45.78031215 64.66218567 44.55110168 C62.71097403 44.30748266 60.76027688 44.05970912 58.81010437 43.8079071 C40.35602451 41.45931311 22.07805196 40.65607915 3.50043869 40.74087143 C1.33761922 40.75016055 -0.82517085 40.75454087 -2.98800659 40.75820923 C-33.21617314 40.82954576 -62.6426639 42.76640141 -92.19580078 49.49902344 Z " fill="#000000" transform="translate(505.25,42.8125)"/>
<path d="M0 0 C2.68809402 1.42947373 3.90151404 2.63920329 6 5 C6.58004331 8.22246285 6.58429648 9.94096262 5 12.8125 C1.79386044 14.71614537 -1.3390346 15.2275911 -5 15 C-9.49346792 13.52840893 -12.35756726 11.96364912 -15 8 C-15 5 -15 5 -14 2 C-9.55542105 -1.36053531 -5.22303533 -1.68919595 0 0 Z " fill="#FFFFFF" transform="translate(316,773)"/>
<path d="M0 0 C2.90800662 2.30399854 3.86185499 3.33690393 4.625 7 C4 10 4 10 1.5625 12.375 C-2.85898302 14.39181682 -6.22226805 14.71270035 -11 14 C-14 12.875 -14 12.875 -16 11 C-17.125 8.125 -17.125 8.125 -17 5 C-13.27908259 -1.33934077 -6.65128974 -1.32659837 0 0 Z " fill="#FFFFFF" transform="translate(356,779)"/>
<path d="M0 0 C4.00520474 1.96333566 5.71759139 3.52343547 8 7.375 C9.1309393 11.47465496 8.76078852 13.20040372 7 17 C0.77531207 18.34257975 0.77531207 18.34257975 -2.6875 16.8125 C-3.450625 16.214375 -4.21375 15.61625 -5 15 C-5.7425 14.4225 -6.485 13.845 -7.25 13.25 C-9.66662421 10.14291173 -10 7.90772837 -10 4 C-7.325917 -0.17156948 -4.78360904 -0.76537745 0 0 Z " fill="#FFFFFF" transform="translate(280,752)"/>
<path d="M0 0 C1.29550781 -0.03867187 1.29550781 -0.03867187 2.6171875 -0.078125 C5.64342056 0.31783073 6.96800216 1.1126559 9.125 3.25 C9.6875 6.6875 9.6875 6.6875 9.125 10.25 C5.60249565 13.86770717 2.72984116 15.16246321 -2.3125 15.4375 C-7.72414842 15.1526764 -7.72414842 15.1526764 -9.875 13.25 C-10.875 9.9375 -10.875 9.9375 -10.875 6.25 C-7.78827599 1.35381709 -5.63694683 0.10036107 0 0 Z " fill="#FFFFFF" transform="translate(385.875,773.75)"/>
<path d="M0 0 C5.83634213 5.17312143 5.83634213 5.17312143 6.16796875 8.875 C6.17441406 9.57625 6.18085938 10.2775 6.1875 11 C6.20167969 11.70125 6.21585937 12.4025 6.23046875 13.125 C6 15 6 15 4 17 C-0.0973993 17.65185898 -1.71199601 17.18277176 -5.25 14.9375 C-8.37261231 12.02910384 -9.46641097 9.26871225 -10 5 C-7.69483828 -0.30187195 -5.56347456 -1.81136381 0 0 Z " fill="#FFFFFF" transform="translate(258,726)"/>
<path d="M0 0 C2.8996617 2.74704792 3.90590378 4.20018212 4.375 8.1875 C4 11 4 11 2 13 C-2.35907046 13.57572629 -4.29436646 13.52155523 -7.875 10.875 C-10.20755113 7.71919553 -10.91516773 5.90228425 -11 2 C-7.69136425 -2.96295363 -5.04879582 -2.26680628 0 0 Z " fill="#FFFFFF" transform="translate(241,703)"/>
<path d="M0 0 C3.06623653 0.08362463 3.99261095 0.28563739 6.625 2.0625 C8.39831609 4.7963623 8.63000243 6.17665127 8.125 9.375 C6.125 11.375 6.125 11.375 3.3125 11.75 C-0.64206628 11.28475691 -2.15564926 10.24974221 -4.875 7.375 C-5.8125 4.75 -5.8125 4.75 -5.875 2.375 C-3.875 0.375 -3.875 0.375 0 0 Z " fill="#FFFFFF" transform="translate(216.875,685.625)"/>
</svg>
