<?xml version="1.0" encoding="UTF-8"?>
<svg version="1.1" xmlns="http://www.w3.org/2000/svg" width="512" height="512">
<path d="M0 0 C0.87173859 0.00215515 1.74347717 0.0043103 2.64163208 0.00653076 C60.7381077 0.23602215 115.85058172 20.71359894 158.87109375 60.03125 C160.53576737 61.54789492 162.21554101 63.04813528 163.91015625 64.53125 C180.85098893 79.40357297 194.30911033 97.76471915 205.375 117.3125 C205.80264648 118.06080078 206.23029297 118.80910156 206.67089844 119.58007812 C236.40606642 172.11746047 242.96201986 234.39665671 227.20751953 292.38623047 C213.55376843 340.378565 183.88568654 384.84528519 143.375 414.3125 C142.74335938 414.77253418 142.11171875 415.23256836 141.4609375 415.70654297 C122.68031841 429.25421565 91.58713345 451.49485553 67.3984375 449.84375 C63.72924105 448.88040885 61.91221 447.10993666 59.375 444.3125 C58.18980425 440.75691275 58.2304255 437.53425677 58.2331543 433.83447266 C58.22794266 432.69470978 58.22794266 432.69470978 58.22262573 431.53192139 C58.2152725 429.88028317 58.20992481 428.22863509 58.20633507 426.57698441 C58.19915128 423.95190775 58.18346618 421.32701604 58.16499329 418.70199585 C58.11264442 411.23739306 58.06465365 403.77288748 58.04907227 396.30810547 C58.03891256 391.73973891 58.00937989 387.17183269 57.96775246 382.60364914 C57.95554151 380.87279134 57.95030283 379.14186819 57.95255089 377.41096878 C57.97062711 358.93386039 53.1279175 346.26833449 42.375 331.3125 C43.21981934 331.16216309 44.06463867 331.01182617 44.93505859 330.85693359 C77.38948824 325.01434135 108.08696065 317.86983249 129.375 290.3125 C141.84011471 272.19238159 147.48905818 250.112038 148.375 228.3125 C148.42785156 227.01828125 148.48070312 225.7240625 148.53515625 224.390625 C149.19853264 199.95059146 141.99365378 177.82374735 125.625 159.3359375 C124.375 157.3125 124.375 157.3125 124.44921875 155.19140625 C124.65160156 154.42699219 124.85398437 153.66257813 125.0625 152.875 C129.78827383 132.94456253 128.30365109 115.78034011 122.375 96.3125 C102.69981995 97.64719058 81.92085344 103.35755362 66.24975586 116.03125 C63.00652835 118.6120482 60.75620922 120.29360198 56.52001953 120.3515625 C53.26111148 119.84709077 50.13188507 119.13077191 46.9375 118.3125 C44.59996765 117.79360917 42.26141639 117.27928736 39.921875 116.76953125 C38.22708008 116.38595459 38.22708008 116.38595459 36.49804688 115.99462891 C10.88256847 110.39975346 -19.78951627 111.08901917 -45.09375 117.68359375 C-57.7920768 120.94666757 -57.7920768 120.94666757 -63.2265625 119.06640625 C-66.53904822 116.99912502 -69.54509181 114.71012565 -72.625 112.3125 C-88.24415941 102.49474266 -104.29649828 97.55583696 -122.625 96.3125 C-129.18955656 116.09928394 -131.01904764 134.86572391 -124.80859375 154.953125 C-124.625 157.3125 -124.625 157.3125 -126.03125 159.56640625 C-126.7221875 160.32824219 -127.413125 161.09007812 -128.125 161.875 C-145.51198633 182.50311444 -149.26373473 207.8451656 -147.3125 234.00390625 C-144.99626066 259.84767416 -136.55312882 286.13788253 -116.68359375 303.94921875 C-95.0770852 321.71127283 -68.73267383 327.54549356 -41.625 331.3125 C-42.94211976 334.15897683 -44.43759443 336.40628117 -46.4375 338.8125 C-51.29658545 345.1767168 -53.97821174 352.58046544 -55.8125 360.3125 C-56.71667756 363.19750587 -57.26317661 364.08438018 -59.85546875 365.71875 C-72.33210729 370.87895501 -88.3976748 371.60070311 -100.9921875 366.56640625 C-113.54119005 360.58980415 -121.23158234 352.72481674 -128.7421875 341.10546875 C-135.52375528 331.04567422 -146.17300095 324.44327779 -157.93359375 321.6015625 C-162.38059929 321.12394507 -166.3778475 322.03190521 -170.625 323.3125 C-169.25904456 328.13603016 -166.56905449 330.22755838 -162.625 333 C-150.21835921 342.18538815 -141.9899186 351.99746997 -136.10888672 366.35131836 C-130.7415117 379.38833358 -122.31110166 389.23246812 -109.0546875 394.81640625 C-102.00457601 397.39948468 -95.59470113 399.43637127 -88.0546875 399.4453125 C-86.46140625 399.44724609 -86.46140625 399.44724609 -84.8359375 399.44921875 C-83.73507813 399.44535156 -82.63421875 399.44148438 -81.5 399.4375 C-80.42234375 399.44136719 -79.3446875 399.44523437 -78.234375 399.44921875 C-71.31110525 399.44087746 -64.50682763 399.06759181 -57.625 398.3125 C-57.50114151 404.46883856 -57.41053743 410.62444747 -57.3503418 416.78173828 C-57.3252412 418.8749658 -57.29115323 420.96810605 -57.24780273 423.06103516 C-57.18695549 426.07476359 -57.1587455 429.08733059 -57.13671875 432.1015625 C-57.11091232 433.03304108 -57.0851059 433.96451965 -57.05851746 434.92422485 C-57.05661713 439.35461949 -57.18055205 442.36313154 -60.03051758 445.88818359 C-64.15996132 449.74678681 -66.98649696 449.68232298 -72.48681641 449.625 C-77.990729 449.07692095 -82.76680707 446.98115277 -87.8125 444.8125 C-88.90675293 444.35689697 -90.00100586 443.90129395 -91.12841797 443.43188477 C-99.82613858 439.76499754 -108.35676416 435.86846669 -116.625 431.3125 C-117.5229126 430.82112549 -117.5229126 430.82112549 -118.43896484 430.31982422 C-134.28056181 421.53119649 -149.06872399 410.605619 -161.99316406 397.91357422 C-163.77116861 396.16908682 -165.56935341 394.44668838 -167.3671875 392.72265625 C-175.56068677 384.78410714 -182.90418806 376.52907564 -189.625 367.3125 C-190.39199219 366.26707031 -191.15898437 365.22164063 -191.94921875 364.14453125 C-226.17985588 316.05436914 -241.61016378 255.7384736 -232.6640625 197.1484375 C-226.37406724 160.2212884 -212.49926394 124.18474542 -189.625 94.3125 C-188.77715069 93.17722749 -187.92949701 92.04180885 -187.08203125 90.90625 C-152.9605419 45.79918136 -102.72047003 15.43030581 -47.5 4.0625 C-46.77417725 3.91135742 -46.04835449 3.76021484 -45.30053711 3.60449219 C-30.28916112 0.71285633 -15.2485223 -0.06840609 0 0 Z " fill="#221E1F" transform="translate(255.625,20.6875)"/>
</svg>
