<?xml version="1.0" encoding="UTF-8"?>
<svg version="1.1" xmlns="http://www.w3.org/2000/svg" width="474" height="485">
<path d="M0 0 C3.118005 -0.00433223 6.23454297 -0.04062501 9.35229492 -0.07861328 C28.05492825 -0.18433426 45.96050396 2.59009802 63.9753418 7.62060547 C65.59206787 8.06666138 65.59206787 8.06666138 67.24145508 8.52172852 C105.8806562 19.47320488 140.46817523 39.9884389 168.8503418 68.37060547 C169.6340918 68.96873047 170.4178418 69.56685547 171.2253418 70.18310547 C201.69844795 95.5773606 220.69461075 138.48077035 231.8503418 175.37060547 C232.07947266 176.12615723 232.30860352 176.88170898 232.54467773 177.66015625 C233.65392201 181.42279515 234.57562961 185.20446984 235.3659668 189.04638672 C235.72331823 190.76109721 236.10145164 192.47150777 236.4909668 194.17919922 C245.83601369 235.7646579 241.97568651 279.04829387 228.8503418 319.37060547 C228.54225586 320.32112793 228.23416992 321.27165039 227.91674805 322.25097656 C218.96888499 349.34053914 205.16230971 374.32804354 187.30639648 396.55615234 C186.0069788 398.17541328 184.72798926 399.81101882 183.4519043 401.44873047 C176.16494318 410.65608206 167.85863948 419.03338181 158.89428711 426.61669922 C156.78820698 428.42392326 154.73956276 430.28497931 152.6862793 432.15185547 C121.65343497 459.73801007 80.99391655 476.15517224 40.43461609 482.91998291 C38.73345711 483.21661575 37.03599471 483.53543877 35.3434906 483.87802124 C28.93818344 485.15447755 22.83416994 485.67802111 16.3112793 485.67138672 C15.3461441 485.67567184 14.38100891 485.67995697 13.3866272 485.68437195 C11.35810117 485.69007218 9.32955472 485.69064764 7.30102539 485.6862793 C4.25329284 485.68313431 1.20654762 485.70658195 -1.84106445 485.73193359 C-13.62870563 485.77053914 -24.64066618 484.9065242 -36.1496582 482.37060547 C-37.17269043 482.16121338 -38.19572266 481.95182129 -39.24975586 481.73608398 C-77.40716388 473.80984429 -113.17406662 458.75709997 -143.1496582 433.37060547 C-144.12676758 432.57654297 -145.10387695 431.78248047 -146.1105957 430.96435547 C-160.06681675 419.54874504 -172.09980096 406.97213342 -182.69018555 392.37695312 C-184.04038731 390.52082096 -185.41279959 388.68404216 -186.79418945 386.85107422 C-208.0941449 358.26603673 -222.64746051 323.62919991 -229.3996582 288.68310547 C-229.55072021 287.9014502 -229.70178223 287.11979492 -229.85742188 286.31445312 C-232.54709211 271.44465752 -233.58945964 256.71148833 -233.5871582 241.62060547 C-233.58855804 240.73241119 -233.58995789 239.84421692 -233.59140015 238.92910767 C-233.57039334 222.59330177 -231.81266954 207.32358101 -228.1496582 191.37060547 C-227.94147461 190.42475586 -227.73329102 189.47890625 -227.51879883 188.50439453 C-217.79242152 144.67274274 -196.32968029 104.67053257 -165.1496582 72.37060547 C-164.58166504 71.78069824 -164.01367188 71.19079102 -163.4284668 70.58300781 C-156.07094893 62.98152693 -148.5968161 55.77352765 -140.1496582 49.37060547 C-139.13000977 48.59587891 -138.11036133 47.82115234 -137.05981445 47.02294922 C-118.11676576 32.94084322 -97.25476756 21.59521439 -75.1496582 13.37060547 C-73.52157227 12.7421875 -73.52157227 12.7421875 -71.8605957 12.10107422 C-59.01386351 7.44967118 -45.52603671 5.00111084 -32.1496582 2.37060547 C-31.25400146 2.17047852 -30.35834473 1.97035156 -29.43554688 1.76416016 C-19.72868671 -0.20414848 -9.86273558 -0.00152615 0 0 Z M-133.1496582 61.37060547 C-133.9849707 62.00353516 -134.8202832 62.63646484 -135.6809082 63.28857422 C-150.56492494 74.7961242 -164.34261355 88.95935343 -175.1496582 104.37060547 C-175.69283691 105.13953125 -176.23601562 105.90845703 -176.7956543 106.70068359 C-195.42151871 133.28706488 -208.12639474 161.59782609 -215.1496582 193.37060547 C-215.31546387 194.11536133 -215.48126953 194.86011719 -215.65209961 195.62744141 C-224.54843832 236.92709328 -220.58583743 280.55288712 -207.1496582 320.37060547 C-206.92197754 321.0626709 -206.69429687 321.75473633 -206.4597168 322.46777344 C-202.59482294 334.08487644 -197.10529793 344.69894236 -191.1496582 355.37060547 C-190.6777002 356.21719727 -190.20574219 357.06378906 -189.71948242 357.93603516 C-188.29079264 360.48331151 -186.84912435 363.02259982 -185.3996582 365.55810547 C-184.96435791 366.32356689 -184.52905762 367.08902832 -184.08056641 367.87768555 C-181.15586626 372.91746686 -178.10648512 378.0640885 -174.1496582 382.37060547 C-173.4896582 382.37060547 -172.8296582 382.37060547 -172.1496582 382.37060547 C-172.05168945 382.94939453 -171.9537207 383.52818359 -171.8527832 384.12451172 C-171.00771742 386.82402743 -169.79896895 388.22299258 -167.8996582 390.30810547 C-167.26930664 391.00419922 -166.63895508 391.70029297 -165.98950195 392.41748047 C-164.50769001 393.99052924 -162.99026963 395.52999404 -161.4621582 397.05810547 C-159.1496582 399.37060547 -159.1496582 399.37060547 -156.9621582 402.18310547 C-156.0649707 403.26591797 -156.0649707 403.26591797 -155.1496582 404.37060547 C-154.4896582 404.37060547 -153.8296582 404.37060547 -153.1496582 404.37060547 C-152.94985352 404.90427734 -152.75004883 405.43794922 -152.54418945 405.98779297 C-150.52963969 409.43002086 -147.7689105 411.82308097 -144.8371582 414.49560547 C-144.21413818 415.06746582 -143.59111816 415.63932617 -142.94921875 416.22851562 C-133.69473417 424.61659804 -123.85590078 431.9222164 -113.1496582 438.37060547 C-112.53638672 438.74685059 -111.92311523 439.1230957 -111.29125977 439.51074219 C-100.89794471 445.87961609 -90.33135701 451.51051932 -79.1496582 456.37060547 C-78.10680664 456.82693359 -77.06395508 457.28326172 -75.98950195 457.75341797 C-70.10702894 460.11964481 -64.49425955 461.53664031 -58.1496582 460.37060547 C-55.21542625 458.57413693 -53.67760465 457.42649837 -52.1496582 454.37060547 C-52.06047043 452.98151243 -52.03206279 451.5882364 -52.03613281 450.19628906 C-52.03620834 449.33554779 -52.03628387 448.47480652 -52.03636169 447.58798218 C-52.04152298 446.65773224 -52.04668427 445.7274823 -52.05200195 444.76904297 C-52.0534169 443.81744293 -52.05483185 442.8658429 -52.05628967 441.88540649 C-52.06189808 438.8387745 -52.07445201 435.79221534 -52.0871582 432.74560547 C-52.09217212 430.68310653 -52.09673521 428.62060644 -52.10083008 426.55810547 C-52.11187025 421.4955773 -52.12914053 416.43310374 -52.1496582 411.37060547 C-53.65206055 411.47453613 -53.65206055 411.47453613 -55.18481445 411.58056641 C-56.52725835 411.67209667 -57.8697065 411.7635647 -59.2121582 411.85498047 C-60.52313477 411.94489258 -61.83411133 412.03480469 -63.18481445 412.12744141 C-81.99509643 413.28107693 -99.22698421 411.08701624 -114.5246582 399.30810547 C-122.3059889 391.85789522 -126.59190898 380.56291256 -131.28149414 371.00634766 C-133.84348047 365.83920972 -136.68169087 360.99138612 -140.1496582 356.37060547 C-140.75293945 355.55076172 -141.3562207 354.73091797 -141.9777832 353.88623047 C-144.31953015 351.17384731 -146.70614425 349.34187953 -149.6496582 347.30810547 C-158.56538185 341.12343453 -158.56538185 341.12343453 -159.8996582 337.12060547 C-159.9821582 336.54310547 -160.0646582 335.96560547 -160.1496582 335.37060547 C-155.40738924 332.20909283 -150.69688991 332.73979483 -145.1496582 333.37060547 C-130.31147336 337.62312339 -122.66096457 346.58255097 -114.34106445 359.08935547 C-107.40603815 369.46787058 -99.1227163 376.73905905 -86.82543945 379.98388672 C-76.8343855 381.42784926 -64.45433036 381.60394234 -55.1496582 377.37060547 C-50.71299817 373.78241619 -49.24873064 370.61457948 -47.7121582 365.18310547 C-45.96083525 359.34631461 -43.76395251 354.44587623 -40.3840332 349.32373047 C-38.98985878 347.29039946 -38.98985878 347.29039946 -38.1496582 344.37060547 C-42.61745593 343.35399665 -47.08553637 342.36734248 -51.5871582 341.51123047 C-70.00605688 337.9616613 -89.34217925 332.35507584 -104.1496582 320.37060547 C-104.8096582 320.37060547 -105.4696582 320.37060547 -106.1496582 320.37060547 C-106.1496582 319.71060547 -106.1496582 319.05060547 -106.1496582 318.37060547 C-107.25441051 317.36519056 -108.41139063 316.41696719 -109.5871582 315.49560547 C-127.81456644 299.80781849 -135.45426871 274.8647352 -137.8684082 251.65185547 C-139.80959318 225.42097124 -136.96808446 200.66410453 -122.1496582 178.37060547 C-121.52833008 177.65259766 -120.90700195 176.93458984 -120.2668457 176.19482422 C-118.35577741 173.91953887 -117.13230357 172.18493627 -116.1496582 169.37060547 C-116.43280645 166.25224916 -117.02849389 163.33034885 -117.76074219 160.28955078 C-121.49285824 144.12257696 -120.26934635 126.43985157 -114.22387695 111.00732422 C-113.1496582 109.37060547 -113.1496582 109.37060547 -109.8371582 108.43310547 C-94.29131808 107.37632206 -75.95198768 117.21612333 -63.1496582 125.37060547 C-62.40586914 126.05251953 -61.66208008 126.73443359 -60.89575195 127.43701172 C-56.64955903 131.27083087 -56.64955903 131.27083087 -51.18334961 132.31542969 C-46.47167679 131.61265374 -41.92709946 130.28366207 -37.35668945 128.96630859 C-9.71539899 121.5056063 24.48428494 123.79565104 51.87084961 131.04516602 C57.99296417 132.58336278 57.99296417 132.58336278 63.79174805 130.67529297 C64.80108398 129.91474609 65.81041992 129.15419922 66.8503418 128.37060547 C67.53999023 127.90138672 68.22963867 127.43216797 68.94018555 126.94873047 C69.54991211 126.51044922 70.15963867 126.07216797 70.7878418 125.62060547 C84.12514915 116.67623126 101.47855177 107.95836615 117.8503418 108.37060547 C118.8403418 108.70060547 119.8303418 109.03060547 120.8503418 109.37060547 C129.36631673 126.67530897 128.2862771 148.62880685 124.0300293 166.89013672 C123.79671359 171.40936046 125.00571118 172.6688166 127.9128418 176.05810547 C144.59806452 196.6816362 147.89829611 224.48922491 145.31518555 250.17138672 C142.37984634 275.97649668 135.25156464 299.95519751 115.2253418 317.62060547 C95.06158662 333.53935956 70.90056387 339.82975129 45.8503418 343.37060547 C46.48623174 346.7415883 47.78548512 349.01892445 49.6628418 351.87060547 C56.34686972 362.73215084 57.93255445 374.01638114 58.3894043 386.51123047 C58.43134918 387.60518127 58.47329407 388.69913208 58.51651001 389.82623291 C58.80899521 397.96004541 58.96483529 406.09171135 59.0612793 414.22998047 C59.07564026 415.37349976 59.09000122 416.51701904 59.10479736 417.69519043 C59.1619838 422.37098355 59.21748025 427.046631 59.25170898 431.72265625 C59.27918147 435.20455697 59.32491316 438.68582322 59.3737793 442.16748047 C59.3786586 443.75009674 59.3786586 443.75009674 59.38363647 445.36468506 C59.42880761 452.39054659 59.42880761 452.39054659 62.8503418 458.37060547 C67.14691778 461.23498946 70.80664142 460.87250266 75.8503418 460.37060547 C79.05794429 459.58948297 82.0081136 458.42196313 85.0378418 457.12060547 C85.88443359 456.76780518 86.73102539 456.41500488 87.60327148 456.05151367 C116.41719281 443.73605531 145.61174608 425.76978528 166.0065918 401.52685547 C168.21438903 398.94485531 170.53341472 396.48002125 172.8503418 393.99560547 C177.34673926 389.05771883 181.17432972 383.93497991 184.8503418 378.37060547 C185.82100586 376.94941406 185.82100586 376.94941406 186.8112793 375.49951172 C195.08244019 363.31460228 201.80839488 350.76752576 207.8503418 337.37060547 C208.29120117 336.41025391 208.73206055 335.44990234 209.1862793 334.46044922 C234.01799192 277.88080871 233.73183341 213.80706347 211.8503418 156.37060547 C205.45764361 140.32522228 197.63622823 124.32503213 187.32299805 110.41357422 C185.8503418 108.37060547 185.8503418 108.37060547 184.28393555 105.60888672 C183.81084961 104.87025391 183.33776367 104.13162109 182.8503418 103.37060547 C182.1903418 103.37060547 181.5303418 103.37060547 180.8503418 103.37060547 C180.60670898 102.82017578 180.36307617 102.26974609 180.11206055 101.70263672 C175.93088006 93.97457248 169.1698669 87.4014213 162.8503418 81.37060547 C157.8503418 76.37060547 157.8503418 76.37060547 156.1394043 74.51904297 C132.85722662 49.98801285 100.77891419 33.35790037 68.8503418 23.37060547 C68.12637207 23.13647949 67.40240234 22.90235352 66.65649414 22.66113281 C-0.41368089 1.17233273 -78.81186905 16.95991241 -133.1496582 61.37060547 Z " fill="#020101" transform="translate(233.149658203125,-0.37060546875)"/>
<path d="M0 0 C3.118005 -0.00433223 6.23454297 -0.04062501 9.35229492 -0.07861328 C28.05492825 -0.18433426 45.96050396 2.59009802 63.9753418 7.62060547 C65.59206787 8.06666138 65.59206787 8.06666138 67.24145508 8.52172852 C105.8806562 19.47320488 140.46817523 39.9884389 168.8503418 68.37060547 C169.6340918 68.96873047 170.4178418 69.56685547 171.2253418 70.18310547 C201.69844795 95.5773606 220.69461075 138.48077035 231.8503418 175.37060547 C232.07947266 176.12615723 232.30860352 176.88170898 232.54467773 177.66015625 C233.65392201 181.42279515 234.57562961 185.20446984 235.3659668 189.04638672 C235.72331823 190.76109721 236.10145164 192.47150777 236.4909668 194.17919922 C245.83601369 235.7646579 241.97568651 279.04829387 228.8503418 319.37060547 C228.54225586 320.32112793 228.23416992 321.27165039 227.91674805 322.25097656 C218.96888499 349.34053914 205.16230971 374.32804354 187.30639648 396.55615234 C186.0069788 398.17541328 184.72798926 399.81101882 183.4519043 401.44873047 C176.16449854 410.65664388 167.85752204 419.03851486 158.88989258 426.61938477 C156.80576592 428.40887968 154.78460743 430.25619238 152.7565918 432.10888672 C147.9367913 436.3982974 142.83671175 440.13660381 137.5378418 443.80810547 C136.65805664 444.43136719 135.77827148 445.05462891 134.87182617 445.69677734 C134.02297852 446.28910156 133.17413086 446.88142578 132.29956055 447.49169922 C131.5398999 448.02206787 130.78023926 448.55243652 129.99755859 449.09887695 C127.91473724 450.33246609 126.21633009 450.93081947 123.8503418 451.37060547 C123.8503418 450.71060547 123.8503418 450.05060547 123.8503418 449.37060547 C124.8403418 449.37060547 125.8303418 449.37060547 126.8503418 449.37060547 C126.7472168 448.64873047 126.6440918 447.92685547 126.5378418 447.18310547 C126.97336629 443.26338502 129.06040332 442.02104702 131.8503418 439.37060547 C131.8503418 438.38060547 131.8503418 437.39060547 131.8503418 436.37060547 C131.0665918 436.57685547 130.2828418 436.78310547 129.4753418 436.99560547 C128.6090918 437.11935547 127.7428418 437.24310547 126.8503418 437.37060547 C126.1903418 436.71060547 125.5303418 436.05060547 124.8503418 435.37060547 C125.48198242 434.92072266 126.11362305 434.47083984 126.7644043 434.00732422 C147.25837184 419.30838127 147.25837184 419.30838127 165.0065918 401.52685547 C167.21438903 398.94485531 169.53341472 396.48002125 171.8503418 393.99560547 C176.34673926 389.05771883 180.17432972 383.93497991 183.8503418 378.37060547 C184.82100586 376.94941406 184.82100586 376.94941406 185.8112793 375.49951172 C194.08244019 363.31460228 200.80839488 350.76752576 206.8503418 337.37060547 C207.29120117 336.41025391 207.73206055 335.44990234 208.1862793 334.46044922 C233.01799192 277.88080871 232.73183341 213.80706347 210.8503418 156.37060547 C204.46143334 140.33473434 196.68358274 124.21543546 186.2253418 110.41357422 C184.70827642 108.15952538 183.77520649 105.91842985 182.8503418 103.37060547 C182.1903418 103.37060547 181.5303418 103.37060547 180.8503418 103.37060547 C179.44018555 101.75341797 179.44018555 101.75341797 177.7878418 99.49560547 C174.38634735 94.98631742 170.72044757 90.81688042 166.90893555 86.65185547 C165.29815407 84.86685285 163.77657522 83.06783196 162.2878418 81.18310547 C159.10645624 77.51227598 155.55505784 74.50076135 151.8503418 71.37060547 C150.87709961 70.52111328 149.90385742 69.67162109 148.90112305 68.79638672 C141.54950397 62.41009759 133.97631788 56.75563849 125.8503418 51.37060547 C124.30540039 50.29552734 124.30540039 50.29552734 122.72924805 49.19873047 C106.2423959 38.03596383 87.79118778 30.29532432 68.8503418 24.37060547 C68.12637207 24.13647949 67.40240234 23.90235352 66.65649414 23.66113281 C14.06653081 6.81168807 -46.65652148 12.8568934 -95.6965332 37.96044922 C-108.98765719 45.049247 -121.48484806 52.83394313 -133.1496582 62.37060547 C-133.99657227 63.01513672 -134.84348633 63.65966797 -135.71606445 64.32373047 C-150.24087332 75.58877307 -163.56929988 89.33477367 -174.1496582 104.37060547 C-174.69428711 105.14098145 -175.23891602 105.91135742 -175.80004883 106.70507812 C-194.42339883 133.29006424 -207.12698896 161.60051434 -214.1496582 193.37060547 C-214.31546387 194.11536133 -214.48126953 194.86011719 -214.65209961 195.62744141 C-223.54843832 236.92709328 -219.58583743 280.55288712 -206.1496582 320.37060547 C-205.92197754 321.0626709 -205.69429687 321.75473633 -205.4597168 322.46777344 C-201.594686 334.08528804 -196.10375307 344.69777486 -190.1496582 355.37060547 C-189.67238281 356.22783203 -189.19510742 357.08505859 -188.70336914 357.96826172 C-187.2595195 360.54663326 -185.80225377 363.11675347 -184.3371582 365.68310547 C-183.893479 366.46532471 -183.4497998 367.24754395 -182.99267578 368.0534668 C-180.97817434 371.52900195 -178.94811925 374.73815332 -176.32543945 377.78857422 C-174.1496582 380.37060547 -174.1496582 380.37060547 -174.1496582 382.37060547 C-173.4896582 382.37060547 -172.8296582 382.37060547 -172.1496582 382.37060547 C-171.14226075 384.03281127 -170.14442865 385.70081221 -169.1496582 387.37060547 C-167.59214877 389.22686991 -165.98876238 391.02891208 -164.35668945 392.81982422 C-163.1496582 394.37060547 -163.1496582 394.37060547 -163.1496582 396.37060547 C-162.2834082 396.71091797 -162.2834082 396.71091797 -161.3996582 397.05810547 C-158.55374439 398.71822186 -157.151239 400.76248504 -155.1496582 403.37060547 C-142.42975801 416.42117898 -128.79585714 427.97098786 -113.1496582 437.37060547 C-112.17391846 437.95890137 -112.17391846 437.95890137 -111.1784668 438.55908203 C-102.99315089 443.48109328 -94.81387792 448.32588373 -86.1496582 452.37060547 C-86.78387695 452.64646484 -87.4180957 452.92232422 -88.0715332 453.20654297 C-90.84510252 454.76015887 -91.21573604 456.41318529 -92.1496582 459.37060547 C-91.4896582 459.37060547 -90.8296582 459.37060547 -90.1496582 459.37060547 C-89.8196582 461.02060547 -89.4896582 462.67060547 -89.1496582 464.37060547 C-92.1496582 465.37060547 -92.1496582 465.37060547 -94.31591797 464.57299805 C-95.14921631 464.14140381 -95.98251465 463.70980957 -96.84106445 463.26513672 C-97.77732666 462.78206055 -98.71358887 462.29898437 -99.67822266 461.80126953 C-100.67942139 461.26727539 -101.68062012 460.73328125 -102.7121582 460.18310547 C-103.73978271 459.64008789 -104.76740723 459.09707031 -105.82617188 458.53759766 C-119.12385285 451.3886391 -131.62225806 443.13322448 -143.1496582 433.37060547 C-144.12676758 432.57654297 -145.10387695 431.78248047 -146.1105957 430.96435547 C-160.06681675 419.54874504 -172.09980096 406.97213342 -182.69018555 392.37695312 C-184.04038731 390.52082096 -185.41279959 388.68404216 -186.79418945 386.85107422 C-208.0941449 358.26603673 -222.64746051 323.62919991 -229.3996582 288.68310547 C-229.55072021 287.9014502 -229.70178223 287.11979492 -229.85742188 286.31445312 C-232.54709211 271.44465752 -233.58945964 256.71148833 -233.5871582 241.62060547 C-233.58855804 240.73241119 -233.58995789 239.84421692 -233.59140015 238.92910767 C-233.57039334 222.59330177 -231.81266954 207.32358101 -228.1496582 191.37060547 C-227.94147461 190.42475586 -227.73329102 189.47890625 -227.51879883 188.50439453 C-217.79242152 144.67274274 -196.32968029 104.67053257 -165.1496582 72.37060547 C-164.58166504 71.78069824 -164.01367188 71.19079102 -163.4284668 70.58300781 C-156.07094893 62.98152693 -148.5968161 55.77352765 -140.1496582 49.37060547 C-139.13000977 48.59587891 -138.11036133 47.82115234 -137.05981445 47.02294922 C-118.11676576 32.94084322 -97.25476756 21.59521439 -75.1496582 13.37060547 C-73.52157227 12.7421875 -73.52157227 12.7421875 -71.8605957 12.10107422 C-59.01386351 7.44967118 -45.52603671 5.00111084 -32.1496582 2.37060547 C-31.25400146 2.17047852 -30.35834473 1.97035156 -29.43554688 1.76416016 C-19.72868671 -0.20414848 -9.86273558 -0.00152615 0 0 Z " fill="#0A0708" transform="translate(233.149658203125,-0.37060546875)"/>
<path d="M0 0 C3.59476701 3.49205938 6.92026191 7.04033675 10 11 C10 11.66 10 12.32 10 13 C10.598125 13.268125 11.19625 13.53625 11.8125 13.8125 C13.97224808 14.98493467 15.35790256 16.19369282 17 18 C16.67 18.66 16.34 19.32 16 20 C13.69 18.02 11.38 16.04 9 14 C8.67 14.66 8.34 15.32 8 16 C7.67 14.68 7.34 13.36 7 12 C6.34 13.32 5.68 14.64 5 16 C4.34 16 3.68 16 3 16 C2.01 18.475 2.01 18.475 1 21 C-2.28788824 17.88983545 -4.83735988 14.98381075 -7 11 C-4.02588876 9.76078698 -1.14737182 8.69941596 2 8 C1.34 8 0.68 8 0 8 C0 5.36 0 2.72 0 0 Z " fill="#161314" transform="translate(60,383)"/>
<path d="M0 0 C0.33 0 0.66 0 1 0 C1.02505615 1.21059082 1.0501123 2.42118164 1.07592773 3.66845703 C1.17034884 8.17490587 1.27048388 12.681213 1.37231445 17.1875 C1.41553236 19.13505734 1.45721631 21.08264937 1.49731445 23.03027344 C1.55533658 25.83539262 1.61893784 28.64033933 1.68359375 31.4453125 C1.70030624 32.31116974 1.71701874 33.17702698 1.73423767 34.06912231 C1.8414637 38.4796015 2.17408109 42.6524838 3 47 C3 47.66 3 48.32 3 49 C2.236875 49.144375 1.47375 49.28875 0.6875 49.4375 C-2.08172908 49.9632594 -2.08172908 49.9632594 -5 51 C-6.73324119 50.91538508 -8.46392812 50.76395645 -10.1875 50.5625 C-11.08855469 50.46066406 -11.98960937 50.35882813 -12.91796875 50.25390625 C-13.60503906 50.17011719 -14.29210937 50.08632813 -15 50 C-15 49.67 -15 49.34 -15 49 C-14.40832031 48.98582031 -13.81664062 48.97164063 -13.20703125 48.95703125 C-12.41683594 48.90933594 -11.62664062 48.86164063 -10.8125 48.8125 C-9.64654297 48.76029297 -9.64654297 48.76029297 -8.45703125 48.70703125 C-4.75476244 47.6416725 -3.36481742 46.04103155 -1 43 C-0.25753996 39.70464802 -0.27849079 36.47316108 -0.29296875 33.10546875 C-0.27784744 32.15811356 -0.26272614 31.21075836 -0.24714661 30.23469543 C-0.20427253 27.21872144 -0.1954318 24.20374837 -0.1875 21.1875 C-0.1643555 19.13864527 -0.13899026 17.08981434 -0.11132812 15.04101562 C-0.04847841 10.02725528 -0.01614089 5.0141195 0 0 Z " fill="#2B2426" transform="translate(181,411)"/>
<path d="M0 0 C2 0 2 0 4.0625 1.875 C5.04934078 2.90939938 6.02685248 3.95270791 7 5 C7.76828125 5.80953125 8.5365625 6.6190625 9.328125 7.453125 C10.14796875 8.33484375 10.9678125 9.2165625 11.8125 10.125 C12.60269531 10.97320312 13.39289063 11.82140625 14.20703125 12.6953125 C16 15 16 15 16 18 C13.5 16.625 13.5 16.625 11 15 C11 14.34 11 13.68 11 13 C10.4225 12.71125 9.845 12.4225 9.25 12.125 C7 11 7 11 5 9.75 C2.95505381 8.72969157 2.95505381 8.72969157 0.75 9.875 C-0.11625 10.431875 -0.11625 10.431875 -1 11 C-1.33 10.01 -1.66 9.02 -2 8 C-1.34 7.01 -0.68 6.02 0 5 C0.16713569 2.37468476 0.16713569 2.37468476 0 0 Z " fill="#0D0A0A" transform="translate(399,66)"/>
<path d="M0 0 C0.66 0.66 1.32 1.32 2 2 C2.99 2 3.98 2 5 2 C4.67 2.99 4.34 3.98 4 5 C3.236875 4.938125 2.47375 4.87625 1.6875 4.8125 C-1.04525312 4.74101915 -1.04525312 4.74101915 -2.8125 6.5 C-3.204375 6.995 -3.59625 7.49 -4 8 C-3.67 8.66 -3.34 9.32 -3 10 C-6.3440915 12.22939433 -7.18349338 12 -11 12 C-12.35278906 12.62624593 -13.69024928 13.2881185 -15 14 C-10.55487173 8.41509524 -5.75545909 4.20788009 0 0 Z " fill="#161213" transform="translate(91,51)"/>
<path d="M0 0 C0.598125 0.20625 1.19625 0.4125 1.8125 0.625 C1.4825 1.285 1.1525 1.945 0.8125 2.625 C3.01159405 4.82409405 5.37320254 6.69923885 7.8125 8.625 C7.4825 9.285 7.1525 9.945 6.8125 10.625 C7.4725 10.955 8.1325 11.285 8.8125 11.625 C8.4825 12.615 8.1525 13.605 7.8125 14.625 C-3.38104839 5.23790323 -3.38104839 5.23790323 -5.1875 1.625 C-2.1875 -0.375 -2.1875 -0.375 0 0 Z " fill="#151112" transform="translate(395.1875,73.375)"/>
<path d="M0 0 C1.485 0.99 1.485 0.99 3 2 C4.32 1.34 5.64 0.68 7 0 C10.05515845 2.0367723 10.60256625 2.80586573 12 6 C12.33 6.66 12.66 7.32 13 8 C12.34 8 11.68 8 11 8 C11 8.66 11 9.32 11 10 C6.53909402 7.85215638 2.35629254 5.70958649 -1 2 C-0.67 1.34 -0.34 0.68 0 0 Z " fill="#030303" transform="translate(396,74)"/>
<path d="M0 0 C0.66 0.99 1.32 1.98 2 3 C4.05925139 3.72382467 4.05925139 3.72382467 6 4 C5.67 5.98 5.34 7.96 5 10 C0.25 11.125 0.25 11.125 -2 10 C-2.8125 7.75 -2.8125 7.75 -3 5 C-1.5625 2.1875 -1.5625 2.1875 0 0 Z " fill="#050404" transform="translate(394,63)"/>
<path d="M0 0 C2.31 0.66 4.62 1.32 7 2 C3.53252172 4.77398263 -0.06402511 6.95912413 -4 9 C-6 8 -6 8 -7.125 4.9375 C-7.41375 3.968125 -7.7025 2.99875 -8 2 C-7.401875 2.20625 -6.80375 2.4125 -6.1875 2.625 C-3.71549154 3.30671915 -3.71549154 3.30671915 -1 1 C-0.67 0.67 -0.34 0.34 0 0 Z " fill="#161213" transform="translate(136,32)"/>
<path d="M0 0 C0.92429882 3.02377758 0.9704108 4.13315141 0.25 7.375 C-0.01938983 11.2811525 0.08151035 11.64594924 2.4375 14.4375 C3.283125 15.283125 4.12875 16.12875 5 17 C4.67 17.66 4.34 18.32 4 19 C3.01 18.34 2.02 17.68 1 17 C-0.9896995 16.60986284 -2.99019869 16.26797351 -5 16 C-3.50723624 10.60308488 -1.80304155 5.30094216 0 0 Z " fill="#1E191B" transform="translate(358,159)"/>
<path d="M0 0 C0.66 0.99 1.32 1.98 2 3 C2.66 3 3.32 3 4 3 C4 3.66 4 4.32 4 5 C3.34 5 2.68 5 2 5 C2.83333333 7.16666667 2.83333333 7.16666667 5 8 C4.814375 8.515625 4.62875 9.03125 4.4375 9.5625 C3.84580483 12.85908739 4.432733 15.72245735 5 19 C4.34 19 3.68 19 3 19 C3.33 19.99 3.66 20.98 4 22 C2.02 22.66 0.04 23.32 -2 24 C-1.71125 23.46375 -1.4225 22.9275 -1.125 22.375 C1.62917737 16.56062556 2.14165764 13.29558539 0.515625 7.125 C-0.07205891 4.70302996 -0.160224 2.48347196 0 0 Z " fill="#221B1E" transform="translate(114,153)"/>
<path d="M0 0 C0.33 0.66 0.66 1.32 1 2 C-0.07408957 4.60474038 -1.20045633 7.09966038 -2.4375 9.625 C-2.77587891 10.33140625 -3.11425781 11.0378125 -3.46289062 11.765625 C-4.30154879 13.51381384 -5.14987847 15.25735686 -6 17 C-6.87776229 13.85577687 -6.97911796 12.13317747 -6 9 C-5.9175 8.360625 -5.835 7.72125 -5.75 7.0625 C-4.62035644 3.9559802 -2.39159805 2.20762897 0 0 Z " fill="#1B1214" transform="translate(455,334)"/>
<path d="M0 0 C0.33 0 0.66 0 1 0 C1.50567729 2.56149628 2.00470132 5.12399465 2.5 7.6875 C2.64308594 8.40873047 2.78617187 9.12996094 2.93359375 9.87304688 C3.65571887 13.63841359 4.1824976 17.14473813 4 21 C2.68 19.35 1.36 17.7 0 16 C0.66 15.67 1.32 15.34 2 15 C2 14.01 2 13.02 2 12 C1.01 12.33 0.02 12.66 -1 13 C-2.20577428 8.05632546 -1.6290678 4.79137588 0 0 Z " fill="#1C1617" transform="translate(467,186)"/>
<path d="M0 0 C0.33 0.66 0.66 1.32 1 2 C1.66 2.33 2.32 2.66 3 3 C1.02 3.99 1.02 3.99 -1 5 C-1 5.66 -1 6.32 -1 7 C-3.31 7.66 -5.62 8.32 -8 9 C-8.66 8.34 -9.32 7.68 -10 7 C-6.7 4.69 -3.4 2.38 0 0 Z " fill="#191317" transform="translate(368,428)"/>
<path d="M0 0 C2 3 2 3 2 5 C0.5 6.625 0.5 6.625 -1 8 C-0.67 8.66 -0.34 9.32 0 10 C-0.33 10.66 -0.66 11.32 -1 12 C-1.66 12 -2.32 12 -3 12 C-3.103125 12.639375 -3.20625 13.27875 -3.3125 13.9375 C-3.539375 14.618125 -3.76625 15.29875 -4 16 C-4.99 16.33 -5.98 16.66 -7 17 C-5.1668733 11.00067626 -2.92678249 5.55079437 0 0 Z " fill="#3C272A" transform="translate(443,331)"/>
<path d="M0 0 C-4.75 3.875 -4.75 3.875 -7 5 C-7 5.66 -7 6.32 -7 7 C-9.97 6.67 -12.94 6.34 -16 6 C-13.10600531 3.65788337 -10.32844572 2.13137829 -6.875 0.75 C-6.00617188 0.39421875 -5.13734375 0.0384375 -4.2421875 -0.328125 C-2 -1 -2 -1 0 0 Z " fill="#231B1D" transform="translate(330,113)"/>
<path d="M0 0 C0.99 0.33 1.98 0.66 3 1 C3 2.65 3 4.3 3 6 C2.01 6.495 2.01 6.495 1 7 C0.01 8.485 0.01 8.485 -1 10 C-2.625 7.75 -2.625 7.75 -4 5 C-3.3125 2.75 -3.3125 2.75 -2 1 C-1.34 0.67 -0.68 0.34 0 0 Z " fill="#181314" transform="translate(76,332)"/>
<path d="M0 0 C3.40053502 1.58691634 6.5779386 3.40981682 9.8125 5.3125 C8.8225 5.9725 7.8325 6.6325 6.8125 7.3125 C5.8225 6.6525 4.8325 5.9925 3.8125 5.3125 C0.67028033 5.62756627 0.67028033 5.62756627 -2.1875 6.3125 C-2.1875 4.6625 -2.1875 3.0125 -2.1875 1.3125 C-2.8475 0.9825 -3.5075 0.6525 -4.1875 0.3125 C-2.1875 -0.6875 -2.1875 -0.6875 0 0 Z " fill="#211D1E" transform="translate(125.1875,440.6875)"/>
<path d="M0 0 C0.33 1.65 0.66 3.3 1 5 C-2 6 -2 6 -4.04296875 5.22265625 C-4.75066406 4.83980469 -5.45835937 4.45695312 -6.1875 4.0625 C-6.90292969 3.68222656 -7.61835938 3.30195313 -8.35546875 2.91015625 C-8.89816406 2.60980469 -9.44085938 2.30945313 -10 2 C-6.16991045 -0.55339303 -4.41711378 -1.47237126 0 0 Z " fill="#130F10" transform="translate(143,459)"/>
<path d="M0 0 C0.66 0.33 1.32 0.66 2 1 C0.48109469 5.55671592 -1.95402262 9.31723292 -5 13 C-5.33 13 -5.66 13 -6 13 C-6 11.02 -6 9.04 -6 7 C-5.34 7 -4.68 7 -4 7 C-3.67 5.68 -3.34 4.36 -3 3 C-2.34 3 -1.68 3 -1 3 C-0.67 2.01 -0.34 1.02 0 0 Z " fill="#221C1D" transform="translate(55,104)"/>
<path d="M0 0 C5.94 1.485 5.94 1.485 12 3 C12 3.33 12 3.66 12 4 C10.8553125 4.1546875 10.8553125 4.1546875 9.6875 4.3125 C6.82940576 5.04364039 5.84257115 5.76951913 4 8 C3.566875 7.0409375 3.566875 7.0409375 3.125 6.0625 C2.17176549 3.84793921 2.17176549 3.84793921 0 3 C0 2.01 0 1.02 0 0 Z " fill="#111010" transform="translate(298,8)"/>
<path d="M0 0 C0.66 0.66 1.32 1.32 2 2 C1.01 2.66 0.02 3.32 -1 4 C-2.27968186 7.27029809 -3.21087678 10.58046607 -4 14 C-5.65 13.67 -7.3 13.34 -9 13 C-7.8782037 11.2063257 -6.75245517 9.4151227 -5.625 7.625 C-4.99851562 6.62726563 -4.37203125 5.62953125 -3.7265625 4.6015625 C-2 2 -2 2 0 0 Z " fill="#251C20" transform="translate(418,377)"/>
<path d="M0 0 C1.32 0.66 2.64 1.32 4 2 C4 5 4 5 2 7.1875 C1.01 8.0846875 1.01 8.0846875 0 9 C-0.99 7.68 -1.98 6.36 -3 5 C-2.34 4.67 -1.68 4.34 -1 4 C-0.34786708 1.97536745 -0.34786708 1.97536745 0 0 Z " fill="#141112" transform="translate(388,56)"/>
<path d="M0 0 C0.33 0.66 0.66 1.32 1 2 C1.66 2.33 2.32 2.66 3 3 C2.34 4.32 1.68 5.64 1 7 C1.66 7.33 2.32 7.66 3 8 C2.01 9.485 2.01 9.485 1 11 C0.34 11 -0.32 11 -1 11 C-1 11.66 -1 12.32 -1 13 C-1.66 13 -2.32 13 -3 13 C-3.33 13.66 -3.66 14.32 -4 15 C-2.9318153 9.88634986 -1.76892524 4.92772031 0 0 Z " fill="#33272B" transform="translate(452,305)"/>
<path d="M0 0 C0.33 0.66 0.66 1.32 1 2 C-0.22103436 4.29460081 -1.47962592 6.44093623 -2.875 8.625 C-3.25269531 9.23601562 -3.63039063 9.84703125 -4.01953125 10.4765625 C-4.97899971 12.00624886 -5.98579322 13.50604395 -7 15 C-7.33 15 -7.66 15 -8 15 C-8.20140476 11.37471432 -7.85776765 9.13498292 -6 6 C-5.01 6 -4.02 6 -3 6 C-2.814375 5.071875 -2.814375 5.071875 -2.625 4.125 C-2 2 -2 2 0 0 Z " fill="#2A2021" transform="translate(439,366)"/>
<path d="M0 0 C0.66 0.33 1.32 0.66 2 1 C0.576875 1.928125 0.576875 1.928125 -0.875 2.875 C-3.94445109 4.81970969 -3.94445109 4.81970969 -6 7 C-9.09994848 8.92410596 -11.37739148 9.20125603 -15 9 C-11.94216092 6.59430669 -8.77542004 4.63810385 -5.375 2.75 C-4.41335938 2.20859375 -3.45171875 1.6671875 -2.4609375 1.109375 C-1.64882813 0.74328125 -0.83671875 0.3771875 0 0 Z " fill="#2F282A" transform="translate(348,441)"/>
<path d="M0 0 C0.86625 0.4640625 0.86625 0.4640625 1.75 0.9375 C6.24865088 3.06186292 9.08971634 3.0043762 14 2 C14 2.66 14 3.32 14 4 C10.21812119 5.83691257 8.05431692 6.15837626 4 5 C4 5.66 4 6.32 4 7 C3.34 6.67 2.68 6.34 2 6 C2 5.01 2 4.02 2 3 C1.34 2.67 0.68 2.34 0 2 C0 1.34 0 0.68 0 0 Z " fill="#251F20" transform="translate(174,128)"/>
<path d="M0 0 C1.13199353 0.9080162 2.25532363 1.82683826 3.375 2.75 C4.00148438 3.26046875 4.62796875 3.7709375 5.2734375 4.296875 C7.08312318 6.08199481 8.00117455 7.67949644 9 10 C7.02 9.01 5.04 8.02 3 7 C3 6.34 3 5.68 3 5 C1.68 4.34 0.36 3.68 -1 3 C-0.67 2.01 -0.34 1.02 0 0 Z " fill="#221C1D" transform="translate(407,74)"/>
<path d="M0 0 C0.66 0.66 1.32 1.32 2 2 C-1.80411834 5.91939465 -5.81576108 9.49102731 -10 13 C-10.66 12.67 -11.32 12.34 -12 12 C-8.04 8.04 -4.08 4.08 0 0 Z " fill="#201C1D" transform="translate(75,65)"/>
<path d="M0 0 C1.32 0.66 2.64 1.32 4 2 C0.7 4.64 -2.6 7.28 -6 10 C-6.33 9.34 -6.66 8.68 -7 8 C-6.34 8 -5.68 8 -5 8 C-5 7.34 -5 6.68 -5 6 C-4.34 5.67 -3.68 5.34 -3 5 C-1.9590934 3.35857037 -0.95495674 1.69287785 0 0 Z " fill="#1C191A" transform="translate(349,312)"/>
<path d="M0 0 C0.99 0.99 1.98 1.98 3 3 C1.6875 5.5 1.6875 5.5 0 8 C-0.99 8 -1.98 8 -3 8 C-3.33 7.34 -3.66 6.68 -4 6 C-2.68 4.02 -1.36 2.04 0 0 Z " fill="#131011" transform="translate(109,180)"/>
<path d="M0 0 C0.99 0.66 1.98 1.32 3 2 C3 2.66 3 3.32 3 4 C3.99 4.33 4.98 4.66 6 5 C5.67 5.66 5.34 6.32 5 7 C2.69 6.34 0.38 5.68 -2 5 C-2 3.68 -2 2.36 -2 1 C-1.34 0.67 -0.68 0.34 0 0 Z " fill="#141011" transform="translate(319,24)"/>
<path d="M0 0 C1.34262065 0.29369827 2.67696283 0.6278958 4 1 C4.66 0.67 5.32 0.34 6 0 C6 0.66 6 1.32 6 2 C6.99 2.33 7.98 2.66 9 3 C5.7 3.66 2.4 4.32 -1 5 C-1.33 4.01 -1.66 3.02 -2 2 C-1.34 1.34 -0.68 0.68 0 0 Z " fill="#261F20" transform="translate(170,19)"/>
<path d="M0 0 C0.66 0 1.32 0 2 0 C2.33 1.32 2.66 2.64 3 4 C2.01 4 1.02 4 0 4 C-0.33 4.66 -0.66 5.32 -1 6 C-3.97 5.505 -3.97 5.505 -7 5 C-5.60683123 2.21366246 -3.84019484 2.06507306 -1 1 C-0.67 0.67 -0.34 0.34 0 0 Z " fill="#1A1617" transform="translate(298,128)"/>
<path d="M0 0 C1.65 0.33 3.3 0.66 5 1 C4.04882866 2.1725131 3.08882991 3.33787015 2.125 4.5 C1.59132813 5.1496875 1.05765625 5.799375 0.5078125 6.46875 C0.01023437 6.9740625 -0.48734375 7.479375 -1 8 C-1.66 8 -2.32 8 -3 8 C-2.690625 7.236875 -2.38125 6.47375 -2.0625 5.6875 C-1.32106407 3.81210323 -0.63771783 1.91315348 0 0 Z " fill="#271B1C" transform="translate(387,424)"/>
<path d="M0 0 C3 1 3 1 4.1875 3.1875 C5.07334979 6.25390311 5.14770318 8.82438155 5 12 C2.32522069 9.32522069 1.3535886 6.507025 0 3 C0 2.01 0 1.02 0 0 Z " fill="#181214" transform="translate(19,335)"/>
<path d="M0 0 C-0.99 1.485 -0.99 1.485 -2 3 C-4.3828125 3.29296875 -4.3828125 3.29296875 -7.125 3.1875 C-8.03507813 3.16042969 -8.94515625 3.13335938 -9.8828125 3.10546875 C-10.58148438 3.07066406 -11.28015625 3.03585938 -12 3 C-8.62803192 -0.37196808 -4.5120049 -1.50400163 0 0 Z " fill="#221C1E" transform="translate(176,9)"/>
<path d="M0 0 C0.66 0 1.32 0 2 0 C1.55170486 1.98146451 1.09107502 3.96014211 0.625 5.9375 C0.36976562 7.03964844 0.11453125 8.14179688 -0.1484375 9.27734375 C-0.42945313 10.17582031 -0.71046875 11.07429687 -1 12 C-1.99 12.495 -1.99 12.495 -3 13 C-2.88490339 11.58249437 -2.75746342 10.16598831 -2.625 8.75 C-2.55539062 7.96109375 -2.48578125 7.1721875 -2.4140625 6.359375 C-1.98492887 3.914123 -1.21399362 2.15163097 0 0 Z " fill="#060102" transform="translate(12,171)"/>
<path d="M0 0 C2.93200474 2.85276137 5.64315404 5.65079784 8 9 C7.67 9.66 7.34 10.32 7 11 C2.34012809 7.9342948 1.14514798 5.41342681 0 0 Z " fill="#292224" transform="translate(426,97)"/>
<path d="M0 0 C0.66 0.33 1.32 0.66 2 1 C0.76446724 2.20254524 -0.48902339 3.38666232 -1.75 4.5625 C-2.79414062 5.55443359 -2.79414062 5.55443359 -3.859375 6.56640625 C-4.56578125 7.03949219 -5.2721875 7.51257812 -6 8 C-7.32 7.67 -8.64 7.34 -10 7 C-6.7 4.69 -3.4 2.38 0 0 Z " fill="#271E21" transform="translate(107,39)"/>
<path d="M0 0 C0 0.66 0 1.32 0 2 C-1.32 2.33 -2.64 2.66 -4 3 C-4.33 4.32 -4.66 5.64 -5 7 C-6.98 7 -8.96 7 -11 7 C-4.48275862 0 -4.48275862 0 0 0 Z " fill="#241A1D" transform="translate(120,32)"/>
<path d="M0 0 C2.31 0.66 4.62 1.32 7 2 C4.37801226 4.15377564 2.35595828 5.40072174 -1 6 C-1.042721 4.33388095 -1.04063832 2.66617115 -1 1 C-0.67 0.67 -0.34 0.34 0 0 Z " fill="#1C1819" transform="translate(136,32)"/>
<path d="M0 0 C0.66 0 1.32 0 2 0 C0.74194623 4.50802601 -0.90407165 7.4912812 -4 11 C-3.67 8.36 -3.34 5.72 -3 3 C-2.01 2.67 -1.02 2.34 0 2 C0 1.34 0 0.68 0 0 Z " fill="#261D1D" transform="translate(444,355)"/>
<path d="M0 0 C3.96 0.33 7.92 0.66 12 1 C12 1.33 12 1.66 12 2 C6.06 2.495 6.06 2.495 0 3 C0 2.01 0 1.02 0 0 Z " fill="#140D12" transform="translate(279,340)"/>
<path d="M0 0 C2.31 0.66 4.62 1.32 7 2 C7 2.66 7 3.32 7 4 C7.99 4.33 8.98 4.66 10 5 C9.67 5.66 9.34 6.32 9 7 C5.18315774 5.44499019 2.80804268 2.96404505 0 0 Z " fill="#1E1A1B" transform="translate(80,424)"/>
<path d="M0 0 C1.65 0 3.3 0 5 0 C5.625 2.375 5.625 2.375 6 5 C5.34 5.66 4.68 6.32 4 7 C2.02 3.535 2.02 3.535 0 0 Z " fill="#161012" transform="translate(40,376)"/>
<path d="M0 0 C3.1875 0.875 3.1875 0.875 6 2 C4.68 2.99 3.36 3.98 2 5 C0.35 4.01 -1.3 3.02 -3 2 C-2.01 1.34 -1.02 0.68 0 0 Z " fill="#151112" transform="translate(94,432)"/>
<path d="M0 0 C2.31 1.65 4.62 3.3 7 5 C6.67 5.66 6.34 6.32 6 7 C2.34683329 5.75023244 1.21934164 5.32901247 -1 2 C-0.67 1.34 -0.34 0.68 0 0 Z " fill="#262223" transform="translate(97,421)"/>
<path d="M0 0 C0.66 0 1.32 0 2 0 C2.33 3.63 2.66 7.26 3 11 C2.34 9.68 1.68 8.36 1 7 C0.34 6.01 -0.32 5.02 -1 4 C-0.625 1.8125 -0.625 1.8125 0 0 Z " fill="#2A2425" transform="translate(14,275)"/>
<path d="M0 0 C0.99 0.495 0.99 0.495 2 1 C2 1.66 2 2.32 2 3 C2.66 3 3.32 3 4 3 C3.67 5.31 3.34 7.62 3 10 C0.70366176 6.55549263 0.45983515 4.06187717 0 0 Z " fill="#281F21" transform="translate(450,170)"/>
<path d="M0 0 C2.475 0.99 2.475 0.99 5 2 C5.33 4.31 5.66 6.62 6 9 C3.59927045 6.11912454 1.52708963 3.43595166 0 0 Z " fill="#292224" transform="translate(421,111)"/>
<path d="M0 0 C0.33 1.32 0.66 2.64 1 4 C0.34 4.66 -0.32 5.32 -1 6 C-1.99 7.485 -1.99 7.485 -3 9 C-3.99 8.34 -4.98 7.68 -6 7 C-4.02 4.69 -2.04 2.38 0 0 Z " fill="#221D1F" transform="translate(62,78)"/>
<path d="M0 0 C3.37462715 0.54723683 5.08235 1.0549 8 3 C3.545 3.495 3.545 3.495 -1 4 C-0.67 2.68 -0.34 1.36 0 0 Z " fill="#1D1618" transform="translate(154,456)"/>
<path d="M0 0 C0.91058531 3.07322544 1.08886184 5.80097361 1 9 C-0.32 9.33 -1.64 9.66 -3 10 C-2.39009109 6.44219804 -1.4216319 3.3171411 0 0 Z " fill="#483F41" transform="translate(447,320)"/>
<path d="M0 0 C0.66 0.33 1.32 0.66 2 1 C1.67 1.66 1.34 2.32 1 3 C1.66 3.33 2.32 3.66 3 4 C-0.61524247 5.20508082 -2.4071892 4.95808288 -6 4 C-4.02 2.68 -2.04 1.36 0 0 Z " fill="#271E22" transform="translate(307,122)"/>
<path d="M0 0 C0.66 0 1.32 0 2 0 C3.125 1.75 3.125 1.75 4 4 C3.125 6.25 3.125 6.25 2 8 C1.34 8 0.68 8 0 8 C-0.33 8.99 -0.66 9.98 -1 11 C-1.33 10.01 -1.66 9.02 -2 8 C-1.34 7.01 -0.68 6.02 0 5 C0.16713569 2.37468476 0.16713569 2.37468476 0 0 Z " fill="#181515" transform="translate(399,66)"/>
<path d="M0 0 C1.32 0.66 2.64 1.32 4 2 C3.67 3.65 3.34 5.3 3 7 C0.525 6.01 0.525 6.01 -2 5 C-1.34 4.01 -0.68 3.02 0 2 C0 1.34 0 0.68 0 0 Z " fill="#1D1719" transform="translate(339,33)"/>
<path d="M0 0 C-2.26185454 2.26185454 -3.96983561 3.03921617 -7 4 C-7.99 3.67 -8.98 3.34 -10 3 C-6.68152292 -0.06320961 -4.44849969 -0.3033068 0 0 Z " fill="#241C1D" transform="translate(323,468)"/>
<path d="M0 0 C-2.62198774 2.15377564 -4.64404172 3.40072174 -8 4 C-7.625 2.0625 -7.625 2.0625 -7 0 C-4.3333581 -1.33332095 -2.83319697 -0.67102033 0 0 Z " fill="#241A1D" transform="translate(339,461)"/>
<path d="M0 0 C1.98 0 3.96 0 6 0 C4.37660195 1.70884005 2.70680947 3.37446717 1 5 C0.34 5 -0.32 5 -1 5 C-0.67 3.35 -0.34 1.7 0 0 Z " fill="#211515" transform="translate(369,439)"/>
<path d="M0 0 C0.66 0.33 1.32 0.66 2 1 C0.95125002 3.62187494 0.35068687 4.79371361 -2.125 6.25 C-2.74375 6.4975 -3.3625 6.745 -4 7 C-2.92598892 4.08482708 -2.22189824 2.22189824 0 0 Z " fill="#30282C" transform="translate(426,365)"/>
<path d="M0 0 C0.33 0.66 0.66 1.32 1 2 C0.06421005 4.35981813 -0.93347808 6.69631264 -2 9 C-3.0625 7.1875 -3.0625 7.1875 -4 5 C-3 2 -3 2 0 0 Z " fill="#261B1B" transform="translate(455,334)"/>
<path d="M0 0 C0.66 0 1.32 0 2 0 C1.25 5.75 1.25 5.75 -1 8 C-1.33 6.02 -1.66 4.04 -2 2 C-1.34 2 -0.68 2 0 2 C0 1.34 0 0.68 0 0 Z " fill="#22181A" transform="translate(32,143)"/>
<path d="M0 0 C4.75 0.75 4.75 0.75 7 3 C6.67 3.99 6.34 4.98 6 6 C3.97945196 4.35830472 1.97956942 2.69088222 0 1 C0 0.67 0 0.34 0 0 Z " fill="#1D191A" transform="translate(397,82)"/>
<path d="M0 0 C2.97 0 5.94 0 9 0 C9 0.33 9 0.66 9 1 C8.030625 1.12375 7.06125 1.2475 6.0625 1.375 C4.5465625 1.684375 4.5465625 1.684375 3 2 C2.67 2.66 2.34 3.32 2 4 C0.68 3.34 -0.64 2.68 -2 2 C-1.34 2 -0.68 2 0 2 C0 1.34 0 0.68 0 0 Z " fill="#292426" transform="translate(299,460)"/>
<path d="M0 0 C2.475 0.495 2.475 0.495 5 1 C5 1.99 5 2.98 5 4 C4.01 3.67 3.02 3.34 2 3 C1.67 3.66 1.34 4.32 1 5 C0.67 3.35 0.34 1.7 0 0 Z " fill="#141213" transform="translate(90,418)"/>
<path d="M0 0 C1.9451 2.91765 2.45276317 4.62537285 3 8 C2.01 8.33 1.02 8.66 0 9 C-1.125 3.375 -1.125 3.375 0 0 Z " fill="#201819" transform="translate(459,159)"/>
<path d="M0 0 C-0.33 0.99 -0.66 1.98 -1 3 C-3.0625 3.6875 -3.0625 3.6875 -5 4 C-5.66 3.01 -6.32 2.02 -7 1 C-4.53721199 -0.231394 -2.7204945 -0.07159196 0 0 Z " fill="#151113" transform="translate(391,68)"/>
<path d="M0 0 C2.625 0.375 2.625 0.375 5 1 C4.67 1.99 4.34 2.98 4 4 C2.02 3.34 0.04 2.68 -2 2 C-1.34 1.34 -0.68 0.68 0 0 Z " fill="#1B1415" transform="translate(128,403)"/>
<path d="M0 0 C0.66 0 1.32 0 2 0 C2 1.98 2 3.96 2 6 C0.35 5.67 -1.3 5.34 -3 5 C-1.625 2.5 -1.625 2.5 0 0 Z " fill="#1A1617" transform="translate(412,385)"/>
<path d="M0 0 C0.66 0 1.32 0 2 0 C1.34 2.97 0.68 5.94 0 9 C-0.33 9 -0.66 9 -1 9 C-1.09765625 2.84765625 -1.09765625 2.84765625 -1 1 C-0.67 0.67 -0.34 0.34 0 0 Z " fill="#211819" transform="translate(459,319)"/>
<path d="M0 0 C2 1 2 1 2 1 Z M-1 1 C-0.34 1.99 0.32 2.98 1 4 C-0.98 4.66 -2.96 5.32 -5 6 C-3.25 2.125 -3.25 2.125 -1 1 Z " fill="#141011" transform="translate(117,171)"/>
<path d="M0 0 C0.99 0.66 1.98 1.32 3 2 C2.34 3.32 1.68 4.64 1 6 C1 5.34 1 4.68 1 4 C-0.98 4.99 -0.98 4.99 -3 6 C-2 4 -1 2 0 0 Z " fill="#1E1719" transform="translate(28,150)"/>
<path d="M0 0 C0.66 0.66 1.32 1.32 2 2 C1.625 4.125 1.625 4.125 1 6 C0.01 5.67 -0.98 5.34 -2 5 C-2.33 4.01 -2.66 3.02 -3 2 C-2.01 2 -1.02 2 0 2 C0 1.34 0 0.68 0 0 Z " fill="#1C1518" transform="translate(454,146)"/>
<path d="M0 0 C1.98 0.495 1.98 0.495 4 1 C2.515 3.475 2.515 3.475 1 6 C0.34 5.34 -0.32 4.68 -1 4 C-0.625 1.875 -0.625 1.875 0 0 Z " fill="#241E1F" transform="translate(59,97)"/>
<path d="M0 0 C3.465 1.485 3.465 1.485 7 3 C6.01 3.99 5.02 4.98 4 6 C2.62437146 4.71034824 1.29233607 3.37310707 0 2 C0 1.34 0 0.68 0 0 Z " fill="#191717" transform="translate(340,24)"/>
</svg>
