<?xml version="1.0" encoding="UTF-8"?>
<svg version="1.1" xmlns="http://www.w3.org/2000/svg" width="50" height="50">
<path d="M0 0 C5.95735496 -0.49644625 10.05600549 0.57029184 15 4 C19.72496196 8.40162019 22.66360871 12.72605221 23.3359375 19.26953125 C23.4271634 27.54371997 23.17810264 33.58428015 17.3515625 39.7421875 C10.85214236 45.67397269 5.13938134 46.46296445 -3.55078125 46.30859375 C-10.0917289 45.72339005 -14.00062765 43.35547257 -18.375 38.5625 C-22.40571584 33.40362185 -23.25828677 29.58631274 -23 23 C-22.01 23 -21.02 23 -20 23 C-17 27.22222222 -17 27.22222222 -17 30 C-11.26718444 32.96524943 -6.40851414 33.61423458 0 33 C2.9254644 31.6490712 2.9254644 31.6490712 5 30 C5.66 30 6.32 30 7 30 C9.96524943 24.26718444 10.61423458 19.40851414 10 13 C8.6490712 10.0745356 8.6490712 10.0745356 7 8 C7 7.34 7 6.68 7 6 C4.66785852 4.79371992 2.50357861 3.8345262 0 3 C0 2.01 0 1.02 0 0 Z " fill="#FFFFFF" transform="translate(25,2)"/>
</svg>
